<svg width="51" height="51" viewBox="0 0 51 51" fill="none" xmlns="http://www.w3.org/2000/svg">
<path fillRule="evenodd" clipRule="evenodd" d="M22.2474 2.12701C20.7392 3.72816 18.4559 4.33996 16.3492 3.70743C14.041 3.01441 11.6259 4.40878 11.072 6.75422C10.5664 8.89495 8.89495 10.5664 6.75422 11.072C4.40878 11.6259 3.01441 14.041 3.70743 16.3492C4.33996 18.4559 3.72816 20.7392 2.12701 22.2474C0.372759 23.8998 0.372759 26.6885 2.12701 28.341C3.72816 29.8492 4.33996 32.1324 3.70743 34.2391C3.01441 36.5473 4.40878 38.9624 6.75422 39.5163C8.89495 40.0219 10.5664 41.6934 11.072 43.8341C11.6259 46.1795 14.041 47.5739 16.3492 46.8809C18.4559 46.2484 20.7392 46.8602 22.2474 48.4613C23.8998 50.2156 26.6885 50.2156 28.341 48.4613C29.8492 46.8602 32.1324 46.2484 34.2391 46.8809C36.5473 47.5739 38.9624 46.1795 39.5163 43.8341C40.0219 41.6934 41.6934 40.0219 43.8341 39.5163C46.1795 38.9624 47.5739 36.5473 46.8809 34.2391C46.2484 32.1324 46.8602 29.8492 48.4613 28.341C50.2156 26.6885 50.2156 23.8998 48.4613 22.2474C46.8602 20.7392 46.2484 18.4559 46.8809 16.3492C47.5739 14.041 46.1795 11.6259 43.8341 11.072C41.6934 10.5664 40.0219 8.89495 39.5163 6.75422C38.9624 4.40878 36.5473 3.01441 34.2391 3.70743C32.1324 4.33996 29.8492 3.72816 28.341 2.12701C26.6885 0.372759 23.8998 0.372759 22.2474 2.12701ZM28.9315 1.57072C26.9588 -0.523573 23.6295 -0.523573 21.6568 1.57072C20.3593 2.94821 18.3949 3.47455 16.5825 2.93038C13.8269 2.10303 10.9437 3.76767 10.2824 6.56774C9.84744 8.40945 8.40945 9.84744 6.56774 10.2824C3.76767 10.9437 2.10303 13.8269 2.93038 16.5825C3.47455 18.3949 2.94821 20.3593 1.57072 21.6568C-0.523573 23.6295 -0.523573 26.9588 1.57072 28.9315C2.94821 30.2291 3.47455 32.1934 2.93037 34.0058C2.10303 36.7614 3.76767 39.6447 6.56774 40.3059C8.40945 40.7409 9.84744 42.1789 10.2824 44.0206C10.9437 46.8207 13.8269 48.4853 16.5825 47.6579C18.3949 47.1138 20.3593 47.6401 21.6568 49.0176C23.6295 51.1119 26.9588 51.1119 28.9315 49.0176C30.2291 47.6401 32.1934 47.1138 34.0058 47.6579C36.7614 48.4853 39.6447 46.8207 40.3059 44.0206C40.7409 42.1789 42.1789 40.7409 44.0206 40.3059C46.8207 39.6447 48.4853 36.7614 47.6579 34.0058C47.1138 32.1934 47.6401 30.2291 49.0176 28.9315C51.1119 26.9588 51.1119 23.6295 49.0176 21.6568C47.6401 20.3593 47.1138 18.3949 47.6579 16.5825C48.4853 13.8269 46.8207 10.9437 44.0206 10.2824C42.1789 9.84744 40.7409 8.40945 40.3059 6.56774C39.6447 3.76767 36.7614 2.10303 34.0058 2.93037C32.1934 3.47455 30.2291 2.94821 28.9315 1.57072Z" fill="white"/>
<path fillRule="evenodd" clipRule="evenodd" d="M18.3974 22.454L18.3974 18.803C18.3974 18.579 18.579 18.3973 18.803 18.3973L22.454 18.3973C22.678 18.3973 22.8596 18.579 22.8596 18.803C22.8596 19.027 22.678 19.2087 22.454 19.2087L19.7824 19.2087L32.071 31.4973L31.4974 32.071L19.2087 19.7824L19.2087 22.454C19.2087 22.678 19.0271 22.8596 18.803 22.8596C18.579 22.8596 18.3974 22.678 18.3974 22.454Z" fill="white"/>
</svg>
