<svg width="80" height="41" viewBox="0 0 80 41" fill="none" xmlns="http://www.w3.org/2000/svg">
<path d="M58.1263 1.67627C58.5718 6.39288 60.9017 10.7827 64.6556 13.981C68.4097 17.1792 73.3156 18.9536 78.4066 18.9536V22.7358C73.3158 22.7359 68.4096 24.5095 64.6556 27.7075C60.9016 30.9058 58.5717 35.2965 58.1263 40.0132L55.1713 39.772C55.6815 34.368 58.3506 29.3376 62.6517 25.6733C63.9328 24.5819 65.3317 23.6365 66.8177 22.8452L0.969116 22.8452L0.969116 19.4858L68.1166 19.4858C66.1429 18.5835 64.3 17.4203 62.6517 16.0161C58.3507 12.3518 55.6816 7.32147 55.1713 1.91748L58.1263 1.67627Z" fill="#2D2D2D"/>
<path d="M58.1263 1.67627L59.0224 1.59165L58.9388 0.706958L58.0531 0.779253L58.1263 1.67627ZM64.6556 13.981L64.072 14.666L64.072 14.666L64.6556 13.981ZM78.4066 18.9536H79.3066V18.0536L78.4066 18.0536L78.4066 18.9536ZM78.4066 22.7358L78.4066 23.6358L79.3066 23.6358V22.7358H78.4066ZM64.6556 27.7075L64.072 27.0224L64.072 27.0224L64.6556 27.7075ZM58.1263 40.0132L58.0531 40.9102L58.9388 40.9825L59.0224 40.0978L58.1263 40.0132ZM55.1713 39.772L54.2752 39.6874L54.1896 40.5948L55.098 40.669L55.1713 39.772ZM62.6517 25.6733L62.0681 24.9883V24.9883L62.6517 25.6733ZM66.8177 22.8452L67.2408 23.6396L66.8177 21.9452V22.8452ZM0.969116 22.8452H0.0691162V23.7452H0.969116V22.8452ZM0.969116 19.4858L0.969116 18.5858H0.0691162L0.0691162 19.4858H0.969116ZM68.1166 19.4858V20.3858L68.4908 18.6673L68.1166 19.4858ZM62.6517 16.0161L62.0681 16.7012L62.0681 16.7012L62.6517 16.0161ZM55.1713 1.91748L55.098 1.02046L54.1896 1.09462L54.2752 2.00209L55.1713 1.91748ZM58.1263 1.67627L57.2303 1.76089C57.6988 6.72115 60.1479 11.3229 64.072 14.666L64.6556 13.981L65.2393 13.2959C61.6554 10.2426 59.4448 6.0646 59.0224 1.59165L58.1263 1.67627ZM64.6556 13.981L64.072 14.666C67.9944 18.0078 73.1092 19.8536 78.4066 19.8536L78.4066 18.9536L78.4066 18.0536C73.5221 18.0536 68.8249 16.3506 65.2393 13.2959L64.6556 13.981ZM78.4066 18.9536H77.5066V22.7358H78.4066H79.3066V18.9536H78.4066ZM78.4066 22.7358L78.4066 21.8358C73.1095 21.8359 67.9945 23.6808 64.072 27.0224L64.6556 27.7075L65.2393 28.3926C68.8247 25.3381 73.5221 23.6359 78.4066 23.6358L78.4066 22.7358ZM64.6556 27.7075L64.072 27.0224C60.1478 30.3657 57.6987 34.9683 57.2303 39.9286L58.1263 40.0132L59.0224 40.0978C59.4447 35.6247 61.6554 31.4459 65.2393 28.3926L64.6556 27.7075ZM58.1263 40.0132L58.1996 39.1162L55.2445 38.875L55.1713 39.772L55.098 40.669L58.0531 40.9102L58.1263 40.0132ZM55.1713 39.772L56.0673 39.8566C56.5545 34.6961 59.1045 29.8778 63.2354 26.3584L62.6517 25.6733L62.0681 24.9883C57.5968 28.7975 54.8085 34.0398 54.2752 39.6874L55.1713 39.772ZM62.6517 25.6733L63.2354 26.3584C64.4656 25.3104 65.8104 24.4013 67.2408 23.6396L66.8177 22.8452L66.3947 22.0508C64.8531 22.8717 63.4001 23.8535 62.0681 24.9883L62.6517 25.6733ZM66.8177 22.8452V21.9452L0.969116 21.9452L0.969116 22.8452V23.7452L66.8177 23.7452V22.8452ZM0.969116 22.8452H1.86912L1.86912 19.4858H0.969116H0.0691162L0.0691162 22.8452H0.969116ZM0.969116 19.4858V20.3858L68.1166 20.3858V19.4858V18.5858L0.969116 18.5858L0.969116 19.4858ZM68.1166 19.4858L68.4908 18.6673C66.5903 17.7984 64.8184 16.6796 63.2354 15.331L62.6517 16.0161L62.0681 16.7012C63.7817 18.1611 65.6955 19.3685 67.7423 20.3043L68.1166 19.4858ZM62.6517 16.0161L63.2354 15.331C59.1045 11.8117 56.5546 6.99328 56.0673 1.83287L55.1713 1.91748L54.2752 2.00209C54.8085 7.64967 57.5968 12.8919 62.0681 16.7012L62.6517 16.0161ZM55.1713 1.91748L55.2445 2.8145L58.1996 2.57329L58.1263 1.67627L58.0531 0.779253L55.098 1.02046L55.1713 1.91748Z" fill="#2D2D2D" fill-opacity="0.3"/>
</svg>
