<svg width="20" height="20" viewBox="0 0 20 20" fill="none" xmlns="http://www.w3.org/2000/svg">
<path d="M8.43807 18.4375C8.27231 18.4375 8.11334 18.3717 7.99613 18.2544C7.87892 18.1372 7.81307 17.9783 7.81307 17.8125V11.8031L2.01932 5.43125C1.79125 5.17992 1.64103 4.8678 1.5869 4.53276C1.53277 4.19772 1.57704 3.85417 1.71436 3.54381C1.85167 3.23345 2.07612 2.96961 2.36046 2.78432C2.6448 2.59904 2.97681 2.50027 3.3162 2.5H16.6849C17.0243 2.50027 17.3563 2.59904 17.6407 2.78432C17.925 2.96961 18.1495 3.23345 18.2868 3.54381C18.4241 3.85417 18.4684 4.19772 18.4142 4.53276C18.3601 4.8678 18.2099 5.17992 17.9818 5.43125L12.1881 11.8031V15.3125C12.188 15.4061 12.1669 15.4985 12.1264 15.5829C12.0858 15.6673 12.0268 15.7415 11.9537 15.8L8.8287 18.3C8.7179 18.3889 8.58012 18.4374 8.43807 18.4375ZM3.3162 3.75C3.21894 3.75024 3.12384 3.77867 3.04241 3.83184C2.96097 3.88501 2.89669 3.96064 2.85734 4.04958C2.818 4.13852 2.80527 4.23696 2.82071 4.33298C2.83615 4.42901 2.87908 4.5185 2.94432 4.59062L8.90057 11.1531C9.00262 11.2653 9.06038 11.4108 9.06307 11.5625V16.5125L10.9381 15V11.5625C10.9377 11.4065 10.9957 11.256 11.1006 11.1406L17.0568 4.57812C17.1182 4.50567 17.1578 4.41734 17.1711 4.32334C17.1843 4.22933 17.1707 4.13348 17.1318 4.04688C17.093 3.96027 17.0304 3.88643 16.9513 3.8339C16.8722 3.78136 16.7799 3.75228 16.6849 3.75H3.3162Z" fill="#2D2D2D"/>
</svg>
