<svg width="20" height="20" viewBox="0 0 20 20" fill="none" xmlns="http://www.w3.org/2000/svg">
<path fillRule="evenodd" clipRule="evenodd" d="M0 0H2.85714V2.85714H0V0ZM0 11.4286H2.85714V14.2857H0V11.4286ZM0 5.71429H2.85714V8.57143H0V5.71429ZM0 17.1429H2.85714V20H0V17.1429ZM5.71429 0H8.57143V2.85714H5.71429V0ZM5.71429 11.4286H8.57143V14.2857H5.71429V11.4286ZM5.71429 5.71429H8.57143V8.57143H5.71429V5.71429ZM5.71429 17.1429H8.57143V20H5.71429V17.1429ZM11.4286 0H14.2857V2.85714H11.4286V0ZM11.4286 11.4286H14.2857V14.2857H11.4286V11.4286ZM11.4286 5.71429H14.2857V8.57143H11.4286V5.71429ZM11.4286 17.1429H14.2857V20H11.4286V17.1429ZM17.1429 0H20V2.85714H17.1429V0ZM17.1429 11.4286H20V14.2857H17.1429V11.4286ZM17.1429 5.71429H20V8.57143H17.1429V5.71429ZM17.1429 17.1429H20V20H17.1429V17.1429Z" fill="#2D2D2D"/>
</svg>
