<svg width="41" height="28" viewBox="0 0 41 28" fill="none" xmlns="http://www.w3.org/2000/svg">
<path fillRule="evenodd" clipRule="evenodd" d="M29.4538 2.32014C30.6899 2.61429 31.8704 3.10437 32.9524 3.7706L35.2258 2.76086L37.9054 5.44031L36.8959 7.71304C37.5624 8.79513 38.0525 9.9762 38.3466 11.2126L40.666 12.1053V15.8946L38.346 16.7876C38.0519 18.0238 37.5617 19.2043 36.8956 20.2862L37.9052 22.5597L35.2258 25.2391L32.953 24.2297C31.8709 24.8961 30.6899 25.3862 29.4534 25.6804L28.5607 27.9997H24.7713L24.0797 26.2032L27.3487 22.9342L27.0444 22.2493C31.43 22.0514 34.9243 18.4343 34.9243 13.9999C34.9243 9.56541 31.43 5.9484 27.0444 5.75044L27.3487 5.06553L24.0797 1.79667L24.7713 0H28.5605L29.4538 2.32014ZM16.8812 2.32014L15.9882 0.000168958H12.199L11.306 2.32014C10.0699 2.61429 8.8893 3.10437 7.80729 3.77051L5.5339 2.76086L2.85444 5.4404L3.86401 7.71363C3.19769 8.79555 2.70762 9.97638 2.41347 11.2125L0.09375 12.1053V15.8947L2.41321 16.7874C2.70745 18.0238 3.19744 19.205 3.86384 20.287L2.85444 22.5598L5.5339 25.2392L7.80729 24.2296C8.88922 24.8957 10.0698 25.3858 11.3059 25.68L12.1989 28H15.9883L16.881 25.6806C18.1175 25.3865 19.2984 24.8964 20.3805 24.2299L22.6533 25.2394L25.3327 22.5599L24.323 20.2865C24.9891 19.2045 25.4792 18.024 25.7734 16.7879L28.0934 15.8948V12.1056L25.774 11.2128C25.4799 9.97637 24.9898 8.79538 24.3233 7.7132L25.3328 5.44048L22.6533 2.76103L20.3799 3.77051C19.2979 3.10437 18.1173 2.61429 16.8812 2.32014ZM14.0936 5.74156C18.655 5.74156 22.352 9.43862 22.352 14C22.352 18.5613 18.655 22.2584 14.0936 22.2584C9.53229 22.2584 5.83523 18.5613 5.83523 14C5.83523 9.43862 9.53229 5.74156 14.0936 5.74156ZM16.3626 20.1655C15.7338 19.1167 15.2689 17.9776 14.9857 16.7874L12.6662 15.8948V12.1054L14.986 11.2125C15.2692 10.0223 15.7341 8.88346 16.363 7.83467C17.5785 8.29051 18.6107 9.05893 19.3824 10.1049C18.7606 11.2653 18.4076 12.5913 18.4076 14C18.4076 15.4086 18.7606 16.7346 19.3824 17.895C18.6466 18.876 17.5356 19.7745 16.3626 20.1655Z" fill="#0B2B12"/>
</svg>
