<svg width="35" height="35" viewBox="0 0 35 35" fill="none" xmlns="http://www.w3.org/2000/svg">
<path d="M14.6613 16.0378C15.8036 21.3732 16.4608 26.801 16.6248 32.2548C16.6265 32.3826 16.5836 32.5069 16.5033 32.6063C16.4231 32.7057 16.3107 32.774 16.1854 32.7993C16.0602 32.8246 15.9301 32.8053 15.8176 32.7449C15.705 32.6844 15.6172 32.5865 15.5692 32.4681C13.0945 26.1393 9.27006 20.4261 4.3622 15.7261C4.10099 15.471 3.90662 15.1555 3.79626 14.8075C3.68591 14.4595 3.66297 14.0896 3.72948 13.7306C3.79599 13.3717 3.94989 13.0346 4.17759 12.7492C4.40529 12.4638 4.69978 12.2389 5.03504 12.0943L6.9985 11.2629L3.01126 8.05235C2.71619 7.80968 2.48842 7.49527 2.34979 7.13927C2.21116 6.78326 2.16633 6.39761 2.21959 6.0193C2.27286 5.64099 2.42243 5.28271 2.65397 4.97883C2.88551 4.67494 3.19124 4.43564 3.54185 4.28389L8.1143 2.36411C8.38964 2.24985 8.68509 2.19197 8.98318 2.19389C9.28128 2.19582 9.57596 2.2575 9.8498 2.3753C10.1236 2.4931 10.3711 2.66462 10.5775 2.87972C10.7839 3.09481 10.945 3.34912 11.0514 3.62759C12.5513 7.67222 13.7577 11.8197 14.6613 16.0378Z" fill="#0B2B12"/>
<path d="M20.4315 6.45533L17.4999 4.98951L14.5682 6.45533C14.4107 6.53249 14.2361 6.56841 14.0609 6.55972C13.8856 6.55104 13.7154 6.49805 13.5663 6.40569C13.4171 6.31334 13.2938 6.18465 13.2079 6.03167C13.122 5.87868 13.0763 5.70641 13.0751 5.53096V3.22288C13.0763 3.04743 13.122 2.87515 13.2079 2.72217C13.2938 2.56919 13.4171 2.4405 13.5663 2.34815C13.7155 2.2558 13.8856 2.20281 14.0609 2.19414C14.2361 2.18547 14.4107 2.2214 14.5683 2.29857L17.4999 3.76435L20.4315 2.29854C20.5891 2.22138 20.7637 2.18546 20.9389 2.19414C21.1142 2.20282 21.2843 2.25582 21.4335 2.34817C21.5827 2.44052 21.706 2.56921 21.7919 2.7222C21.8778 2.87518 21.9235 3.04746 21.9247 3.2229V5.53099C21.9235 5.70645 21.8779 5.87875 21.792 6.03176C21.7061 6.18476 21.5828 6.31347 21.4336 6.40583C21.2844 6.49819 21.1142 6.55118 20.9389 6.55983C20.7637 6.56849 20.5891 6.53253 20.4315 6.45533Z" fill="#0B2B12"/>
<path d="M31.9885 8.05255L28.0013 11.2631L29.9648 12.0945C30.2976 12.2381 30.5902 12.4609 30.8171 12.7435C31.0441 13.026 31.1985 13.3598 31.267 13.7157C31.3355 14.0716 31.3159 14.4388 31.21 14.7854C31.1041 15.132 30.9151 15.4475 30.6594 15.7044C25.7416 20.409 21.9096 26.1301 19.4306 32.4683C19.3821 32.5861 19.2941 32.6833 19.1817 32.7432C19.0694 32.8032 18.9397 32.8222 18.8148 32.7969C18.69 32.7717 18.5779 32.7038 18.4976 32.6049C18.4174 32.506 18.374 32.3823 18.375 32.255C18.6667 22.4733 20.5491 12.8044 23.9484 3.62776C24.0549 3.34937 24.2161 3.09515 24.4225 2.88012C24.6289 2.66509 24.8764 2.49362 25.1502 2.37584C25.424 2.25806 25.7186 2.19636 26.0167 2.19438C26.3147 2.19241 26.6102 2.2502 26.8855 2.36434L31.458 4.28407C31.8086 4.43584 32.1144 4.67515 32.3459 4.97904C32.5774 5.28292 32.727 5.64121 32.7802 6.01952C32.8335 6.39783 32.7887 6.78347 32.65 7.13948C32.5114 7.49548 32.2836 7.80989 31.9885 8.05255Z" fill="#0B2B12"/>
</svg>
