<svg width="35" height="35" viewBox="0 0 35 35" fill="none" xmlns="http://www.w3.org/2000/svg">
<g clipPath="url(#clip0_2_148)">
<path d="M34.2176 15.6415C33.1919 14.6158 33.1919 12.9504 34.2176 11.9253C36.5882 9.37009 33.0533 5.83901 30.5009 8.20855C30.1945 8.51496 29.8309 8.72905 29.4445 8.85239C29.8794 10.443 29.4137 12.2164 28.2342 13.3749C28.009 13.6001 28.009 13.9666 28.2342 14.1919C30.0484 15.9325 30.0484 19.0673 28.2342 20.8078C28.009 21.033 28.009 21.3996 28.2342 21.6249C30.0409 23.4314 30.0814 26.3936 28.2342 28.2407C26.4267 30.0484 23.465 30.0875 21.6184 28.2407C21.5153 28.1376 21.1272 27.915 20.8013 28.2407C19.0608 30.0549 15.9259 30.0549 14.1854 28.2407C14.0823 28.1376 13.6942 27.915 13.3684 28.2407C12.2101 29.42 10.4364 29.886 8.84597 29.451C8.72263 29.8373 8.50847 30.201 8.20213 30.5074C7.17644 31.5331 7.17644 33.1984 8.20213 34.2241C9.22782 35.2498 10.8932 35.2498 11.9189 34.2241C12.9439 33.1984 14.6094 33.1984 15.635 34.2241C16.6606 35.2498 18.326 35.2498 19.3517 34.2241C20.3774 33.1984 22.0422 33.1984 23.0679 34.2241C24.0936 35.2498 25.7589 35.2498 26.7846 34.2241C27.8103 33.1984 29.4751 33.1984 30.5008 34.2241C31.5265 35.2498 33.1919 35.2498 34.2175 34.2241C35.2432 33.1984 35.2432 31.5331 34.2175 30.5074C33.1919 29.4817 33.1919 27.8169 34.2175 26.7912C35.2432 25.7655 35.2432 24.1002 34.2175 23.0745C33.1919 22.0488 33.1919 20.3841 34.2175 19.3584C35.2434 18.3325 35.2434 16.6672 34.2176 15.6415Z" fill="#0B2B12"/>
<path d="M1.48733 20.7L20.6936 1.49375C20.2018 1.39576 19.7327 1.15659 19.3518 0.775698C18.7689 0.192742 17.9793 -0.0584525 17.218 0.0212247L0.0148771 17.2244C-0.0648 17.9858 0.186395 18.7754 0.769282 19.3582C1.15024 19.7392 1.38934 20.2082 1.48733 20.7Z" fill="#0B2B12"/>
<path d="M26.7847 0.775397C26.3097 0.300409 25.6976 0.0458657 25.0753 0.0107422L0.00463867 25.0814C0.0435889 26.3681 1.19235 27.5165 2.47866 27.5555L27.5493 2.48483C27.5142 1.86252 27.2597 1.25038 26.7847 0.775397Z" fill="#0B2B12"/>
<path d="M26.7848 15.6415C26.4893 15.346 26.2795 14.9974 26.1542 14.6265L14.6201 26.1606C14.9911 26.2858 15.3397 26.4957 15.6351 26.7911C16.3538 27.5098 17.3863 27.7242 18.2931 27.4358L27.4294 18.2994C27.7178 17.3927 27.5034 16.3602 26.7848 15.6415Z" fill="#0B2B12"/>
<path d="M0.769266 11.9252C1.06474 12.2207 1.27453 12.5692 1.39978 12.9402L12.934 1.40603C12.5631 1.28078 12.2144 1.07092 11.9189 0.775516C11.2003 0.0568502 10.1678 -0.157513 9.2611 0.130856L0.124674 9.26735C-0.163763 10.174 0.0505999 11.2065 0.769266 11.9252Z" fill="#0B2B12"/>
<path d="M26.7847 26.7909C27.8104 25.7652 27.8104 24.0999 26.7847 23.0742C26.5689 22.8584 26.3991 22.614 26.2741 22.3535L22.3474 26.2802C22.6079 26.4052 22.8523 26.575 23.0681 26.7909C24.0937 27.8166 25.759 27.8166 26.7847 26.7909Z" fill="#0B2B12"/>
<path d="M10.3361 27.5454L27.5392 10.3423C27.6189 9.58098 27.3677 8.79139 26.7847 8.20843C26.4039 7.82754 26.1648 7.35843 26.0668 6.8667L6.86047 26.073C7.3522 26.171 7.82138 26.4102 8.20221 26.791C8.78516 27.374 9.57469 27.6251 10.3361 27.5454Z" fill="#0B2B12"/>
<path d="M1.27999 5.21294L5.20659 1.28634C4.9461 1.16129 4.70174 0.991481 4.48601 0.775615C3.46032 -0.250075 1.79496 -0.250075 0.769267 0.775615C-0.256422 1.8013 -0.256422 3.46667 0.769267 4.49236C0.985134 4.70809 1.15501 4.95245 1.27999 5.21294Z" fill="#0B2B12"/>
</g>
<defs>
<clipPath id="clip0_2_148">
<rect width="35" height="35" fill="white"/>
</clipPath>
</defs>
</svg>
