<svg width="35" height="35" viewBox="0 0 35 35" fill="none" xmlns="http://www.w3.org/2000/svg">
<path d="M16.4017 2.05078C18.2523 2.05078 20.0381 2.38513 21.74 3.04739C22.2627 2.42484 22.7313 1.87503 23.1349 1.41244C20.9988 0.483438 18.7143 0 16.4016 0C15.8353 0 15.3762 0.459102 15.3762 1.02539C15.3762 1.59168 15.8354 2.05078 16.4017 2.05078Z" fill="#0B2B12"/>
<path d="M26.7101 9.03089C25.3262 8.05014 24.9954 6.12917 25.9694 4.74647C26.8963 3.43048 28.7922 2.97849 30.2472 3.99697C30.3979 4.10245 32.3909 5.52918 34.1811 8.28106C35.4749 6.20314 35.2447 3.41927 33.4125 1.58751C31.2767 -0.548925 27.8456 -0.509277 25.7496 1.58737C22.4368 4.9 1.1228 32.1834 0.217108 33.3432C-0.101652 33.7513 -0.065763 34.3334 0.300438 34.6995C0.666639 35.0657 1.24865 35.1016 1.65676 34.7828C2.60729 34.0406 21.1029 19.5917 29.5712 12.5772C28.7144 10.8953 27.5982 9.65761 26.7101 9.03089Z" fill="#0B2B12"/>
<path d="M31.4774 28.9481C37.7513 20.1537 34.7726 9.78235 29.0711 5.67696C27.9285 4.9434 26.8168 6.52872 27.8926 7.35532C33.4906 11.4915 34.7095 20.7899 30.0166 27.4671C27.8045 25.4092 24.9879 23.6136 21.8933 23.6136C18.9054 23.6136 16.4746 26.0444 16.4746 29.0323C16.4746 32.0201 18.9054 34.4509 21.8933 34.4509C25.0504 34.4509 27.9141 32.9327 30.1542 30.5523C31.9411 32.5684 33.0668 34.4512 33.0907 34.4917C33.3349 34.9069 33.9375 35.1832 34.4944 34.8557C34.9826 34.5685 35.1454 33.9401 34.8583 33.4519C34.7493 33.2668 33.4936 31.1629 31.4774 28.9481ZM21.8933 32.4002C20.0362 32.4002 18.5254 30.8894 18.5254 29.0323C18.5254 27.1753 20.0362 25.6645 21.8933 25.6645C24.4143 25.6645 26.8084 27.2486 28.7312 29.0745C26.8419 31.1099 24.4616 32.4002 21.8933 32.4002Z" fill="#0B2B12"/>
</svg>
