<svg width="251" height="15" viewBox="0 0 251 15" fill="none" xmlns="http://www.w3.org/2000/svg">
<path d="M240.266 14.2119C240.222 14.2119 240.2 14.1679 240.2 14.0799C240.2 13.9919 240.222 13.9479 240.266 13.9479C240.765 13.9479 241.124 13.9112 241.344 13.8379C241.579 13.7646 241.733 13.6252 241.806 13.4199C241.894 13.1999 241.938 12.8699 241.938 12.4299V2.24391C241.938 1.80391 241.894 1.48125 241.806 1.27591C241.733 1.07058 241.579 0.931246 241.344 0.857913C241.109 0.769913 240.75 0.725913 240.266 0.725913C240.222 0.725913 240.2 0.681913 240.2 0.593914C240.2 0.505914 240.222 0.461914 240.266 0.461914H249.418C249.565 0.461914 249.638 0.527914 249.638 0.659913L249.682 3.51991C249.682 3.54925 249.638 3.57125 249.55 3.58591C249.477 3.58591 249.433 3.56391 249.418 3.51991C249.066 1.86258 248.054 1.03391 246.382 1.03391H245.48C244.937 1.03391 244.556 1.12925 244.336 1.31991C244.131 1.51058 244.028 1.83325 244.028 2.28791V12.3419C244.028 12.8259 244.116 13.1632 244.292 13.3539C244.483 13.5446 244.813 13.6399 245.282 13.6399H246.36C248.325 13.6399 249.572 12.6939 250.1 10.8019C250.1 10.7726 250.137 10.7579 250.21 10.7579C250.313 10.7579 250.364 10.7799 250.364 10.8239C250.217 11.9386 250.144 12.9579 250.144 13.8819C250.144 13.9992 250.122 14.0872 250.078 14.1459C250.034 14.1899 249.946 14.2119 249.814 14.2119H240.266ZM248.582 9.23991C248.582 7.97858 247.761 7.34791 246.118 7.34791H243.038V6.77591H246.14C247.753 6.77591 248.56 6.23325 248.56 5.14791C248.56 5.10391 248.597 5.08191 248.67 5.08191C248.758 5.08191 248.802 5.10391 248.802 5.14791L248.78 7.06191L248.802 8.09591C248.831 8.56525 248.846 8.94658 248.846 9.23991C248.846 9.26925 248.802 9.28391 248.714 9.28391C248.626 9.28391 248.582 9.26925 248.582 9.23991Z" fill="white"/>
<path d="M230.934 14.3C230.479 14.3 229.944 14.278 229.328 14.234C229.108 14.2193 228.829 14.2046 228.492 14.19C228.154 14.1753 227.78 14.168 227.37 14.168L225.808 14.19C225.529 14.2046 225.14 14.212 224.642 14.212C224.612 14.212 224.598 14.168 224.598 14.08C224.598 13.992 224.612 13.948 224.642 13.948C225.14 13.948 225.5 13.9113 225.72 13.838C225.954 13.7646 226.116 13.6253 226.204 13.42C226.292 13.2 226.336 12.87 226.336 12.43V2.24397C226.336 1.80397 226.292 1.4813 226.204 1.27597C226.13 1.07064 225.976 0.931302 225.742 0.857968C225.507 0.769969 225.148 0.725968 224.664 0.725968C224.634 0.725968 224.62 0.681969 224.62 0.593969C224.62 0.505969 224.634 0.461969 224.664 0.461969L225.83 0.483969C226.475 0.513302 226.988 0.527968 227.37 0.527968C227.942 0.527968 228.536 0.505969 229.152 0.461969C229.885 0.432636 230.376 0.417969 230.626 0.417969C232.122 0.417969 233.449 0.711302 234.608 1.29797C235.766 1.88463 236.661 2.68397 237.292 3.69597C237.937 4.70797 238.26 5.84464 238.26 7.10597C238.26 8.52864 237.93 9.78997 237.27 10.89C236.61 11.9753 235.722 12.8186 234.608 13.42C233.493 14.0066 232.268 14.3 230.934 14.3ZM230.714 13.86C231.726 13.86 232.62 13.618 233.398 13.134C234.19 12.65 234.806 11.9386 235.246 11C235.686 10.0466 235.906 8.90997 235.906 7.58997C235.906 6.32864 235.693 5.19197 235.268 4.17997C234.857 3.1533 234.27 2.34664 233.508 1.75997C232.745 1.15864 231.858 0.857968 230.846 0.857968C230.215 0.857968 229.731 0.894635 229.394 0.967968C229.071 1.0413 228.829 1.18064 228.668 1.38597C228.506 1.57664 228.426 1.8773 228.426 2.28797V12.188C228.426 12.7893 228.58 13.222 228.888 13.486C229.21 13.7353 229.819 13.86 230.714 13.86Z" fill="white"/>
<path d="M212.521 8.27167H218.681L218.835 8.82167H212.235L212.521 8.27167ZM223.939 13.9477C223.998 13.9477 224.027 13.9917 224.027 14.0797C224.027 14.1677 223.998 14.2117 223.939 14.2117C223.66 14.2117 223.213 14.197 222.597 14.1677C221.981 14.1383 221.534 14.1237 221.255 14.1237C220.888 14.1237 220.456 14.1383 219.957 14.1677C219.458 14.197 219.07 14.2117 218.791 14.2117C218.732 14.2117 218.703 14.1677 218.703 14.0797C218.703 13.9917 218.732 13.9477 218.791 13.9477C219.231 13.9477 219.546 13.9037 219.737 13.8157C219.928 13.713 220.023 13.5517 220.023 13.3317C220.023 13.1117 219.898 12.7377 219.649 12.2097L215.051 2.85967L215.953 1.38567L211.597 11.1977C211.406 11.6377 211.311 12.0337 211.311 12.3857C211.311 12.899 211.494 13.2877 211.861 13.5517C212.228 13.8157 212.741 13.9477 213.401 13.9477C213.474 13.9477 213.511 13.9917 213.511 14.0797C213.511 14.1677 213.474 14.2117 213.401 14.2117C213.137 14.2117 212.756 14.197 212.257 14.1677C211.7 14.1383 211.216 14.1237 210.805 14.1237C210.409 14.1237 209.947 14.1383 209.419 14.1677C208.95 14.197 208.561 14.2117 208.253 14.2117C208.18 14.2117 208.143 14.1677 208.143 14.0797C208.143 13.9917 208.18 13.9477 208.253 13.9477C208.664 13.9477 209.008 13.867 209.287 13.7057C209.566 13.5443 209.837 13.2583 210.101 12.8477C210.365 12.4223 210.68 11.799 211.047 10.9777L215.777 0.329671C215.806 0.285671 215.872 0.263672 215.975 0.263672C216.078 0.263672 216.136 0.285671 216.151 0.329671L221.541 11.1977C222.04 12.2537 222.458 12.9797 222.795 13.3757C223.147 13.757 223.528 13.9477 223.939 13.9477Z" fill="white"/>
<path d="M200.861 12.3419C200.861 12.7232 200.897 13.0092 200.971 13.1999C201.044 13.3759 201.176 13.4932 201.367 13.5519C201.557 13.6106 201.865 13.6399 202.291 13.6399H203.611C204.652 13.6399 205.532 13.3539 206.251 12.7819C206.969 12.1952 207.446 11.4106 207.681 10.4279C207.681 10.3986 207.71 10.3839 207.769 10.3839C207.798 10.3839 207.827 10.3986 207.857 10.4279C207.901 10.4426 207.923 10.4572 207.923 10.4719C207.791 11.8212 207.725 12.9579 207.725 13.8819C207.725 13.9992 207.703 14.0872 207.659 14.1459C207.615 14.1899 207.527 14.2119 207.395 14.2119H197.099C197.069 14.2119 197.055 14.1679 197.055 14.0799C197.055 13.9919 197.069 13.9479 197.099 13.9479C197.597 13.9479 197.957 13.9112 198.177 13.8379C198.411 13.7646 198.565 13.6252 198.639 13.4199C198.727 13.1999 198.771 12.8699 198.771 12.4299V2.24391C198.771 1.80391 198.727 1.48125 198.639 1.27591C198.565 1.07058 198.411 0.931246 198.177 0.857913C197.942 0.769913 197.583 0.725913 197.099 0.725913C197.069 0.725913 197.055 0.681913 197.055 0.593914C197.055 0.505914 197.069 0.461914 197.099 0.461914L198.221 0.483914C198.866 0.513247 199.394 0.527913 199.805 0.527913C200.245 0.527913 200.787 0.513247 201.433 0.483914L202.533 0.461914C202.577 0.461914 202.599 0.505914 202.599 0.593914C202.599 0.681913 202.577 0.725913 202.533 0.725913C202.049 0.725913 201.689 0.769913 201.455 0.857913C201.22 0.931246 201.059 1.07791 200.971 1.29791C200.897 1.50325 200.861 1.82591 200.861 2.26591V12.3419Z" fill="white"/>
<path d="M188.852 2.79373C188.852 3.33639 188.984 3.82039 189.248 4.24573C189.527 4.65639 189.864 5.01573 190.26 5.32373C190.656 5.61706 191.199 5.98373 191.888 6.42373C192.636 6.89306 193.223 7.29639 193.648 7.63373C194.088 7.97106 194.462 8.38906 194.77 8.88773C195.078 9.37173 195.232 9.94373 195.232 10.6037C195.232 11.3517 195.034 12.0191 194.638 12.6057C194.257 13.1924 193.707 13.6544 192.988 13.9917C192.284 14.3144 191.478 14.4757 190.568 14.4757C189.952 14.4757 189.314 14.3951 188.654 14.2337C188.009 14.0724 187.518 13.8744 187.18 13.6397C187.048 13.5517 186.975 13.4124 186.96 13.2217L186.828 9.89973V9.87773C186.828 9.81906 186.865 9.78973 186.938 9.78973C187.012 9.77506 187.056 9.79706 187.07 9.85573C187.554 11.0584 188.104 12.0484 188.72 12.8257C189.351 13.6031 190.143 13.9917 191.096 13.9917C191.742 13.9917 192.277 13.8231 192.702 13.4857C193.128 13.1337 193.34 12.5544 193.34 11.7477C193.34 11.1024 193.194 10.5377 192.9 10.0537C192.622 9.56973 192.27 9.16639 191.844 8.84373C191.434 8.52106 190.869 8.12506 190.15 7.65573C189.446 7.20106 188.896 6.81973 188.5 6.51173C188.104 6.18906 187.767 5.80039 187.488 5.34573C187.21 4.87639 187.07 4.33373 187.07 3.71773C187.07 2.95506 187.283 2.30973 187.708 1.78173C188.134 1.25373 188.684 0.86506 189.358 0.615726C190.048 0.351726 190.766 0.219727 191.514 0.219727C191.998 0.219727 192.49 0.27106 192.988 0.373727C193.487 0.461727 193.912 0.57906 194.264 0.725726C194.484 0.813726 194.594 0.953059 194.594 1.14373L194.638 4.11373C194.638 4.17239 194.602 4.20906 194.528 4.22373C194.47 4.23839 194.426 4.22373 194.396 4.17973C194.103 3.28506 193.707 2.47839 193.208 1.75973C192.724 1.02639 191.991 0.659726 191.008 0.659726C190.348 0.659726 189.82 0.857726 189.424 1.25373C189.043 1.63506 188.852 2.14839 188.852 2.79373Z" fill="white"/>
<path d="M171.881 0.967913L172.475 1.01191V11.5499C172.475 12.3272 172.622 12.9212 172.915 13.3319C173.223 13.7426 173.67 13.9479 174.257 13.9479C174.301 13.9479 174.323 13.9919 174.323 14.0799C174.323 14.1679 174.301 14.2119 174.257 14.2119C173.876 14.2119 173.582 14.2046 173.377 14.1899L172.211 14.1679L170.913 14.1899C170.678 14.2046 170.341 14.2119 169.901 14.2119C169.857 14.2119 169.835 14.1679 169.835 14.0799C169.835 13.9919 169.857 13.9479 169.901 13.9479C170.532 13.9479 171.016 13.7426 171.353 13.3319C171.705 12.9212 171.881 12.3272 171.881 11.5499V0.967913ZM183.057 14.5199C183.057 14.5639 183.02 14.5932 182.947 14.6079C182.874 14.6226 182.822 14.6152 182.793 14.5859L172.211 2.26591C171.712 1.69391 171.272 1.29791 170.891 1.07791C170.51 0.843247 170.136 0.725913 169.769 0.725913C169.725 0.725913 169.703 0.681913 169.703 0.593914C169.703 0.505914 169.725 0.461914 169.769 0.461914L170.649 0.483914C170.825 0.49858 171.089 0.505914 171.441 0.505914L172.849 0.483914C173.025 0.469247 173.23 0.461914 173.465 0.461914C173.582 0.461914 173.67 0.491247 173.729 0.549913C173.788 0.60858 173.876 0.725913 173.993 0.901914C174.242 1.23925 174.426 1.47391 174.543 1.60591L182.881 11.4179L183.057 14.5199ZM183.057 14.5199L182.463 13.8599V3.14591C182.463 2.36858 182.309 1.77458 182.001 1.36391C181.708 0.938579 181.268 0.725913 180.681 0.725913C180.652 0.725913 180.637 0.681913 180.637 0.593914C180.637 0.505914 180.652 0.461914 180.681 0.461914L181.583 0.483914C182.052 0.513247 182.441 0.527913 182.749 0.527913C183.028 0.527913 183.431 0.513247 183.959 0.483914L184.883 0.461914C184.927 0.461914 184.949 0.505914 184.949 0.593914C184.949 0.681913 184.927 0.725913 184.883 0.725913C184.296 0.725913 183.842 0.938579 183.519 1.36391C183.211 1.77458 183.057 2.36858 183.057 3.14591V14.5199Z" fill="white"/>
<path d="M166.45 12.4299C166.45 12.8846 166.487 13.2146 166.56 13.4199C166.648 13.6252 166.802 13.7646 167.022 13.8379C167.257 13.9112 167.623 13.9479 168.122 13.9479C168.166 13.9479 168.188 13.9919 168.188 14.0799C168.188 14.1679 168.166 14.2119 168.122 14.2119C167.653 14.2119 167.279 14.2046 167 14.1899L165.372 14.1679L163.788 14.1899C163.509 14.2046 163.128 14.2119 162.644 14.2119C162.6 14.2119 162.578 14.1679 162.578 14.0799C162.578 13.9919 162.6 13.9479 162.644 13.9479C163.143 13.9479 163.502 13.9112 163.722 13.8379C163.957 13.7646 164.118 13.6252 164.206 13.4199C164.294 13.1999 164.338 12.8699 164.338 12.4299V2.24391C164.338 1.80391 164.294 1.48125 164.206 1.27591C164.118 1.07058 163.957 0.931246 163.722 0.857913C163.502 0.769913 163.143 0.725913 162.644 0.725913C162.6 0.725913 162.578 0.681913 162.578 0.593914C162.578 0.505914 162.6 0.461914 162.644 0.461914L163.788 0.483914C164.433 0.513247 164.961 0.527913 165.372 0.527913C165.827 0.527913 166.377 0.513247 167.022 0.483914L168.122 0.461914C168.166 0.461914 168.188 0.505914 168.188 0.593914C168.188 0.681913 168.166 0.725913 168.122 0.725913C167.638 0.725913 167.279 0.769913 167.044 0.857913C166.809 0.945914 166.648 1.09991 166.56 1.31991C166.487 1.52525 166.45 1.84791 166.45 2.28791V12.4299Z" fill="white"/>
<path d="M149.335 14.1899C149.32 14.2486 149.239 14.2779 149.093 14.2779C148.946 14.2779 148.865 14.2486 148.851 14.1899L143.285 2.28791C142.977 1.64258 142.713 1.22458 142.493 1.03391C142.287 0.82858 141.972 0.725913 141.547 0.725913C141.503 0.725913 141.481 0.681913 141.481 0.593914C141.481 0.505914 141.503 0.461914 141.547 0.461914L142.119 0.483914C142.471 0.513247 142.837 0.527913 143.219 0.527913C144.055 0.527913 144.795 0.513247 145.441 0.483914C145.646 0.469247 145.903 0.461914 146.211 0.461914C146.255 0.461914 146.277 0.505914 146.277 0.593914C146.277 0.681913 146.255 0.725913 146.211 0.725913C145.829 0.725913 145.551 0.769913 145.375 0.857913C145.199 0.931246 145.111 1.07058 145.111 1.27591C145.111 1.49591 145.25 1.90658 145.529 2.50791L149.929 11.9019L149.049 13.2659L151.689 6.40191L152.085 6.97391L149.335 14.1899ZM161.787 0.461914C161.816 0.461914 161.831 0.505914 161.831 0.593914C161.831 0.681913 161.816 0.725913 161.787 0.725913C161.259 0.725913 160.775 0.923914 160.335 1.31991C159.895 1.71591 159.528 2.28791 159.235 3.03591L154.967 14.1899C154.952 14.2486 154.871 14.2779 154.725 14.2779C154.578 14.2779 154.497 14.2486 154.483 14.1899L148.917 2.28791C148.667 1.75991 148.425 1.37125 148.191 1.12191C147.956 0.857913 147.685 0.725913 147.377 0.725913C147.333 0.725913 147.311 0.681913 147.311 0.593914C147.311 0.505914 147.333 0.461914 147.377 0.461914L147.905 0.483914C148.227 0.513247 148.55 0.527913 148.873 0.527913C149.562 0.527913 150.171 0.513247 150.699 0.483914C150.845 0.469247 151.036 0.461914 151.271 0.461914C151.315 0.461914 151.337 0.505914 151.337 0.593914C151.337 0.681913 151.315 0.725913 151.271 0.725913C151.051 0.725913 150.889 0.755247 150.787 0.813913C150.684 0.857914 150.633 0.953247 150.633 1.09991C150.633 1.21725 150.677 1.40058 150.765 1.64991C150.867 1.89925 150.992 2.18525 151.139 2.50791L155.583 11.9019L154.703 13.2659L158.597 3.10191C158.743 2.72058 158.817 2.36125 158.817 2.02391C158.817 1.61325 158.692 1.29791 158.443 1.07791C158.208 0.843247 157.871 0.725913 157.431 0.725913C157.387 0.725913 157.365 0.681913 157.365 0.593914C157.365 0.505914 157.387 0.461914 157.431 0.461914L158.399 0.483914C158.927 0.513247 159.403 0.527913 159.829 0.527913C160.122 0.527913 160.459 0.513247 160.841 0.483914L161.787 0.461914ZM153.141 2.94791C153.405 2.25858 153.537 1.73791 153.537 1.38591C153.537 0.945913 153.317 0.725913 152.877 0.725913C152.833 0.725913 152.811 0.681913 152.811 0.593914C152.811 0.505914 152.833 0.461914 152.877 0.461914C153.009 0.461914 153.163 0.476581 153.339 0.505914C153.515 0.52058 153.837 0.527913 154.307 0.527913C154.571 0.527913 154.879 0.513247 155.231 0.483914L156.089 0.461914C156.118 0.461914 156.133 0.505914 156.133 0.593914C156.133 0.681913 156.118 0.725913 156.089 0.725913C155.59 0.725913 155.15 0.909247 154.769 1.27591C154.387 1.64258 154.043 2.22925 153.735 3.03591L152.217 6.97391L151.821 6.40191L153.141 2.94791Z" fill="white"/>
<path d="M128.669 2.618C128.669 1.97267 128.507 1.46667 128.185 1.1C127.877 0.733333 127.466 0.55 126.953 0.55C126.058 0.55 125.611 1.13667 125.611 2.31C125.611 3.79133 126.219 5.33867 127.437 6.952C128.654 8.56533 130.165 10.054 131.969 11.418C132.937 12.1367 133.809 12.716 134.587 13.156C135.364 13.5813 135.987 13.8453 136.457 13.948C136.515 13.9627 136.537 14.014 136.523 14.102C136.523 14.1753 136.501 14.212 136.457 14.212H133.289C132.658 14.212 131.477 13.508 129.747 12.1C128.661 11.2347 127.627 10.2813 126.645 9.24C125.677 8.184 124.943 7.18667 124.445 6.248C124.239 5.82267 124.078 5.42667 123.961 5.06C123.858 4.67867 123.807 4.28267 123.807 3.872C123.807 3.13867 123.968 2.47867 124.291 1.892C124.628 1.30533 125.097 0.843334 125.699 0.506001C126.315 0.168667 127.026 0 127.833 0C128.669 0 129.343 0.183333 129.857 0.55C130.385 0.916667 130.649 1.46667 130.649 2.2C130.649 2.75733 130.502 3.26333 130.209 3.718C129.915 4.17267 129.549 4.56867 129.109 4.906C128.683 5.24333 128.111 5.654 127.393 6.138C126.659 6.622 126.073 7.04 125.633 7.392C125.207 7.744 124.841 8.15467 124.533 8.624C124.239 9.09333 124.093 9.614 124.093 10.186C124.093 10.7727 124.254 11.33 124.577 11.858C124.899 12.3713 125.361 12.782 125.963 13.09C126.564 13.398 127.253 13.552 128.031 13.552C129.277 13.552 130.238 13.134 130.913 12.298C131.602 11.462 131.947 10.3473 131.947 8.954C131.947 8.206 131.815 7.66333 131.551 7.326C131.301 6.974 130.861 6.798 130.231 6.798C130.201 6.798 130.179 6.754 130.165 6.666C130.165 6.578 130.187 6.534 130.231 6.534L135.247 6.512C135.305 6.512 135.335 6.556 135.335 6.644C135.335 6.732 135.305 6.776 135.247 6.776C134.792 6.776 134.447 6.82733 134.213 6.93C133.993 7.018 133.831 7.16467 133.729 7.37C133.626 7.56067 133.509 7.876 133.377 8.316C133.083 9.372 132.709 10.34 132.255 11.22C131.815 12.0853 131.125 12.848 130.187 13.508C129.263 14.1533 128.06 14.476 126.579 14.476C125.596 14.476 124.775 14.3293 124.115 14.036C123.455 13.728 122.963 13.332 122.641 12.848C122.318 12.364 122.157 11.8433 122.157 11.286C122.157 10.7433 122.296 10.2447 122.575 9.79C122.853 9.32067 123.198 8.90267 123.609 8.536C124.034 8.16933 124.591 7.72933 125.281 7.216C126.029 6.65867 126.623 6.182 127.063 5.786C127.517 5.37533 127.899 4.906 128.207 4.378C128.515 3.85 128.669 3.26333 128.669 2.618Z" fill="white"/>
<path d="M104.463 14.2119C104.419 14.2119 104.397 14.1679 104.397 14.0799C104.397 13.9919 104.419 13.9479 104.463 13.9479C104.962 13.9479 105.321 13.9112 105.541 13.8379C105.776 13.7646 105.93 13.6252 106.003 13.4199C106.091 13.1999 106.135 12.8699 106.135 12.4299V2.24391C106.135 1.80391 106.091 1.48125 106.003 1.27591C105.93 1.07058 105.776 0.931246 105.541 0.857913C105.307 0.769913 104.947 0.725913 104.463 0.725913C104.419 0.725913 104.397 0.681913 104.397 0.593914C104.397 0.505914 104.419 0.461914 104.463 0.461914H113.615C113.762 0.461914 113.835 0.527914 113.835 0.659913L113.879 3.51991C113.879 3.54925 113.835 3.57125 113.747 3.58591C113.674 3.58591 113.63 3.56391 113.615 3.51991C113.263 1.86258 112.251 1.03391 110.579 1.03391H109.677C109.135 1.03391 108.753 1.12925 108.533 1.31991C108.328 1.51058 108.225 1.83325 108.225 2.28791V12.3419C108.225 12.8259 108.313 13.1632 108.489 13.3539C108.68 13.5446 109.01 13.6399 109.479 13.6399H110.557C112.523 13.6399 113.769 12.6939 114.297 10.8019C114.297 10.7726 114.334 10.7579 114.407 10.7579C114.51 10.7579 114.561 10.7799 114.561 10.8239C114.415 11.9386 114.341 12.9579 114.341 13.8819C114.341 13.9992 114.319 14.0872 114.275 14.1459C114.231 14.1899 114.143 14.2119 114.011 14.2119H104.463ZM112.779 9.23991C112.779 7.97858 111.958 7.34791 110.315 7.34791H107.235V6.77591H110.337C111.951 6.77591 112.757 6.23325 112.757 5.14791C112.757 5.10391 112.794 5.08191 112.867 5.08191C112.955 5.08191 112.999 5.10391 112.999 5.14791L112.977 7.06191L112.999 8.09591C113.029 8.56525 113.043 8.94658 113.043 9.23991C113.043 9.26925 112.999 9.28391 112.911 9.28391C112.823 9.28391 112.779 9.26925 112.779 9.23991Z" fill="white"/>
<path d="M97.8056 0.219727C99.4336 0.219727 100.746 0.44706 101.744 0.901727C101.861 0.960393 101.934 1.01906 101.964 1.07773C101.993 1.12173 102.022 1.23173 102.052 1.40773L102.316 4.31173C102.316 4.35573 102.279 4.38506 102.206 4.39973C102.132 4.41439 102.081 4.39239 102.052 4.33373C101.67 3.13106 101.098 2.21439 100.336 1.58373C99.5876 0.95306 98.6563 0.637726 97.5416 0.637726C96.4563 0.637726 95.4956 0.909059 94.6596 1.45173C93.8236 1.97973 93.1709 2.74973 92.7016 3.76173C92.2323 4.75906 91.9976 5.92506 91.9976 7.25973C91.9976 8.57973 92.2469 9.76039 92.7456 10.8017C93.2443 11.8284 93.9263 12.6277 94.7916 13.1997C95.6569 13.7717 96.6323 14.0577 97.7176 14.0577C98.7883 14.0577 99.6756 13.7791 100.38 13.2217C101.098 12.6497 101.729 11.7477 102.272 10.5157C102.286 10.4717 102.33 10.4571 102.404 10.4717C102.477 10.4864 102.514 10.5084 102.514 10.5377L102.228 13.1557C102.198 13.3317 102.169 13.4491 102.14 13.5077C102.11 13.5517 102.037 13.6031 101.92 13.6617C100.6 14.2044 99.1916 14.4757 97.6956 14.4757C96.1409 14.4757 94.7476 14.1824 93.5156 13.5957C92.2836 12.9944 91.3229 12.1584 90.6336 11.0877C89.9443 10.0024 89.5996 8.76306 89.5996 7.36973C89.5996 5.99106 89.9516 4.75906 90.6556 3.67373C91.3743 2.58839 92.3569 1.74506 93.6036 1.14373C94.8503 0.527726 96.2509 0.219727 97.8056 0.219727Z" fill="white"/>
<path d="M75.1583 0.967913L75.7523 1.01191V11.5499C75.7523 12.3272 75.899 12.9212 76.1923 13.3319C76.5003 13.7426 76.9477 13.9479 77.5343 13.9479C77.5783 13.9479 77.6003 13.9919 77.6003 14.0799C77.6003 14.1679 77.5783 14.2119 77.5343 14.2119C77.153 14.2119 76.8597 14.2046 76.6544 14.1899L75.4883 14.1679L74.1903 14.1899C73.9557 14.2046 73.6183 14.2119 73.1783 14.2119C73.1343 14.2119 73.1124 14.1679 73.1124 14.0799C73.1124 13.9919 73.1343 13.9479 73.1783 13.9479C73.809 13.9479 74.293 13.7426 74.6303 13.3319C74.9823 12.9212 75.1583 12.3272 75.1583 11.5499V0.967913ZM86.3344 14.5199C86.3344 14.5639 86.2977 14.5932 86.2243 14.6079C86.151 14.6226 86.0997 14.6152 86.0704 14.5859L75.4883 2.26591C74.9897 1.69391 74.5497 1.29791 74.1684 1.07791C73.787 0.843247 73.413 0.725913 73.0463 0.725913C73.0023 0.725913 72.9803 0.681913 72.9803 0.593914C72.9803 0.505914 73.0023 0.461914 73.0463 0.461914L73.9263 0.483914C74.1023 0.49858 74.3663 0.505914 74.7183 0.505914L76.1264 0.483914C76.3024 0.469247 76.5077 0.461914 76.7423 0.461914C76.8597 0.461914 76.9477 0.491247 77.0063 0.549913C77.065 0.60858 77.153 0.725913 77.2703 0.901914C77.5197 1.23925 77.703 1.47391 77.8204 1.60591L86.1583 11.4179L86.3344 14.5199ZM86.3344 14.5199L85.7403 13.8599V3.14591C85.7403 2.36858 85.5864 1.77458 85.2784 1.36391C84.985 0.938579 84.545 0.725913 83.9584 0.725913C83.929 0.725913 83.9143 0.681913 83.9143 0.593914C83.9143 0.505914 83.929 0.461914 83.9584 0.461914L84.8604 0.483914C85.3297 0.513247 85.7184 0.527913 86.0264 0.527913C86.305 0.527913 86.7084 0.513247 87.2364 0.483914L88.1603 0.461914C88.2043 0.461914 88.2263 0.505914 88.2263 0.593914C88.2263 0.681913 88.2043 0.725913 88.1603 0.725913C87.5737 0.725913 87.119 0.938579 86.7963 1.36391C86.4883 1.77458 86.3344 2.36858 86.3344 3.14591V14.5199Z" fill="white"/>
<path d="M61.3011 14.2119C61.2571 14.2119 61.2351 14.1679 61.2351 14.0799C61.2351 13.9919 61.2571 13.9479 61.3011 13.9479C61.7998 13.9479 62.1591 13.9112 62.3791 13.8379C62.6138 13.7646 62.7678 13.6252 62.8411 13.4199C62.9291 13.1999 62.9731 12.8699 62.9731 12.4299V2.24391C62.9731 1.80391 62.9291 1.48125 62.8411 1.27591C62.7678 1.07058 62.6138 0.931246 62.3791 0.857913C62.1444 0.769913 61.7851 0.725913 61.3011 0.725913C61.2571 0.725913 61.2351 0.681913 61.2351 0.593914C61.2351 0.505914 61.2571 0.461914 61.3011 0.461914H70.4531C70.5998 0.461914 70.6731 0.527914 70.6731 0.659913L70.7171 3.51991C70.7171 3.54925 70.6731 3.57125 70.5851 3.58591C70.5118 3.58591 70.4678 3.56391 70.4531 3.51991C70.1011 1.86258 69.0891 1.03391 67.4171 1.03391H66.5151C65.9724 1.03391 65.5911 1.12925 65.3711 1.31991C65.1658 1.51058 65.0631 1.83325 65.0631 2.28791V12.3419C65.0631 12.8259 65.1511 13.1632 65.3271 13.3539C65.5178 13.5446 65.8478 13.6399 66.3171 13.6399H67.3951C69.3604 13.6399 70.6071 12.6939 71.1351 10.8019C71.1351 10.7726 71.1718 10.7579 71.2451 10.7579C71.3478 10.7579 71.3991 10.7799 71.3991 10.8239C71.2524 11.9386 71.1791 12.9579 71.1791 13.8819C71.1791 13.9992 71.1571 14.0872 71.1131 14.1459C71.0691 14.1899 70.9811 14.2119 70.8491 14.2119H61.3011ZM69.6171 9.23991C69.6171 7.97858 68.7958 7.34791 67.1531 7.34791H64.0731V6.77591H67.1751C68.7884 6.77591 69.5951 6.23325 69.5951 5.14791C69.5951 5.10391 69.6318 5.08191 69.7051 5.08191C69.7931 5.08191 69.8371 5.10391 69.8371 5.14791L69.8151 7.06191L69.8371 8.09591C69.8664 8.56525 69.8811 8.94658 69.8811 9.23991C69.8811 9.26925 69.8371 9.28391 69.7491 9.28391C69.6611 9.28391 69.6171 9.26925 69.6171 9.23991Z" fill="white"/>
<path d="M57.0451 14.2125C56.6931 14.2125 56.0405 13.5965 55.0871 12.3645C54.1485 11.1325 53.0045 9.41648 51.6551 7.21648L53.4151 6.68848C54.6471 8.52182 55.6738 9.95915 56.4951 11.0005C57.3311 12.0272 58.0718 12.7752 58.7171 13.2445C59.3625 13.7138 59.9858 13.9485 60.5871 13.9485C60.6165 13.9485 60.6311 13.9925 60.6311 14.0805C60.6311 14.1685 60.6165 14.2125 60.5871 14.2125H57.0451ZM52.0511 0.396484C53.3125 0.396484 54.2951 0.653151 54.9991 1.16648C55.7031 1.66515 56.0551 2.35448 56.0551 3.23448C56.0551 4.05582 55.8205 4.79648 55.3511 5.45648C54.8818 6.11648 54.2585 6.63715 53.4811 7.01848C52.7185 7.38515 51.9118 7.56848 51.0611 7.56848C50.7531 7.56848 50.3791 7.55382 49.9391 7.52448V12.4305C49.9391 12.8852 49.9758 13.2152 50.0491 13.4205C50.1225 13.6258 50.2691 13.7652 50.4891 13.8385C50.7238 13.9118 51.0978 13.9485 51.6111 13.9485C51.6405 13.9485 51.6551 13.9925 51.6551 14.0805C51.6551 14.1685 51.6405 14.2125 51.6111 14.2125C51.1271 14.2125 50.7458 14.2052 50.4671 14.1905L48.8611 14.1685L47.2771 14.1905C46.9985 14.2052 46.6171 14.2125 46.1331 14.2125C46.0891 14.2125 46.0671 14.1685 46.0671 14.0805C46.0671 13.9925 46.0891 13.9485 46.1331 13.9485C46.6318 13.9485 46.9911 13.9118 47.2111 13.8385C47.4458 13.7652 47.6071 13.6258 47.6951 13.4205C47.7831 13.2005 47.8271 12.8705 47.8271 12.4305V2.24448C47.8271 1.80448 47.7831 1.48182 47.6951 1.27648C47.6218 1.07115 47.4678 0.931817 47.2331 0.858484C46.9985 0.770484 46.6391 0.726484 46.1551 0.726484C46.1258 0.726484 46.1111 0.682484 46.1111 0.594484C46.1111 0.506485 46.1258 0.462485 46.1551 0.462485L47.2991 0.484485C47.9445 0.513818 48.4651 0.528484 48.8611 0.528484C49.3451 0.528484 49.8731 0.506484 50.4451 0.462485C50.6358 0.447817 50.8631 0.433151 51.1271 0.418484C51.4058 0.403818 51.7138 0.396484 52.0511 0.396484ZM53.8771 4.00448C53.8771 2.81648 53.6718 1.98782 53.2611 1.51848C52.8651 1.04915 52.2858 0.814484 51.5231 0.814484C50.9365 0.814484 50.5258 0.924484 50.2911 1.14448C50.0565 1.34982 49.9391 1.73115 49.9391 2.28848V6.93048C50.2911 6.98915 50.7165 7.01848 51.2151 7.01848C52.1685 7.01848 52.8505 6.78382 53.2611 6.31448C53.6718 5.83048 53.8771 5.06048 53.8771 4.00448Z" fill="white"/>
<path d="M32.8678 14.1899C32.8532 14.2486 32.7725 14.2779 32.6258 14.2779C32.4792 14.2779 32.3985 14.2486 32.3838 14.1899L26.8178 2.28791C26.5098 1.64258 26.2458 1.22458 26.0258 1.03391C25.8205 0.82858 25.5052 0.725913 25.0798 0.725913C25.0358 0.725913 25.0138 0.681913 25.0138 0.593914C25.0138 0.505914 25.0358 0.461914 25.0798 0.461914L25.6518 0.483914C26.0038 0.513247 26.3705 0.527913 26.7518 0.527913C27.5878 0.527913 28.3285 0.513247 28.9738 0.483914C29.1792 0.469247 29.4358 0.461914 29.7438 0.461914C29.7878 0.461914 29.8098 0.505914 29.8098 0.593914C29.8098 0.681913 29.7878 0.725913 29.7438 0.725913C29.3625 0.725913 29.0838 0.769913 28.9078 0.857913C28.7318 0.931246 28.6438 1.07058 28.6438 1.27591C28.6438 1.49591 28.7832 1.90658 29.0618 2.50791L33.4618 11.9019L32.5818 13.2659L35.2218 6.40191L35.6178 6.97391L32.8678 14.1899ZM45.3198 0.461914C45.3492 0.461914 45.3638 0.505914 45.3638 0.593914C45.3638 0.681913 45.3492 0.725913 45.3198 0.725913C44.7918 0.725913 44.3078 0.923914 43.8678 1.31991C43.4278 1.71591 43.0612 2.28791 42.7678 3.03591L38.4998 14.1899C38.4852 14.2486 38.4045 14.2779 38.2578 14.2779C38.1112 14.2779 38.0305 14.2486 38.0158 14.1899L32.4498 2.28791C32.2005 1.75991 31.9585 1.37125 31.7238 1.12191C31.4892 0.857913 31.2178 0.725913 30.9098 0.725913C30.8658 0.725913 30.8438 0.681913 30.8438 0.593914C30.8438 0.505914 30.8658 0.461914 30.9098 0.461914L31.4378 0.483914C31.7605 0.513247 32.0832 0.527913 32.4058 0.527913C33.0952 0.527913 33.7038 0.513247 34.2318 0.483914C34.3785 0.469247 34.5692 0.461914 34.8038 0.461914C34.8478 0.461914 34.8698 0.505914 34.8698 0.593914C34.8698 0.681913 34.8478 0.725913 34.8038 0.725913C34.5838 0.725913 34.4225 0.755247 34.3198 0.813913C34.2172 0.857914 34.1658 0.953247 34.1658 1.09991C34.1658 1.21725 34.2098 1.40058 34.2978 1.64991C34.4005 1.89925 34.5252 2.18525 34.6718 2.50791L39.1158 11.9019L38.2358 13.2659L42.1298 3.10191C42.2765 2.72058 42.3498 2.36125 42.3498 2.02391C42.3498 1.61325 42.2252 1.29791 41.9758 1.07791C41.7412 0.843247 41.4038 0.725913 40.9638 0.725913C40.9198 0.725913 40.8978 0.681913 40.8978 0.593914C40.8978 0.505914 40.9198 0.461914 40.9638 0.461914L41.9318 0.483914C42.4598 0.513247 42.9365 0.527913 43.3618 0.527913C43.6552 0.527913 43.9925 0.513247 44.3738 0.483914L45.3198 0.461914ZM36.6738 2.94791C36.9378 2.25858 37.0698 1.73791 37.0698 1.38591C37.0698 0.945913 36.8498 0.725913 36.4098 0.725913C36.3658 0.725913 36.3438 0.681913 36.3438 0.593914C36.3438 0.505914 36.3658 0.461914 36.4098 0.461914C36.5418 0.461914 36.6958 0.476581 36.8718 0.505914C37.0478 0.52058 37.3705 0.527913 37.8398 0.527913C38.1038 0.527913 38.4118 0.513247 38.7638 0.483914L39.6218 0.461914C39.6512 0.461914 39.6658 0.505914 39.6658 0.593914C39.6658 0.681913 39.6512 0.725913 39.6218 0.725913C39.1232 0.725913 38.6832 0.909247 38.3018 1.27591C37.9205 1.64258 37.5758 2.22925 37.2678 3.03591L35.7498 6.97391L35.3538 6.40191L36.6738 2.94791Z" fill="white"/>
<path d="M15.4663 8.27167H21.6263L21.7803 8.82167H15.1803L15.4663 8.27167ZM26.8843 13.9477C26.943 13.9477 26.9723 13.9917 26.9723 14.0797C26.9723 14.1677 26.943 14.2117 26.8843 14.2117C26.6057 14.2117 26.1583 14.197 25.5423 14.1677C24.9263 14.1383 24.479 14.1237 24.2003 14.1237C23.8337 14.1237 23.401 14.1383 22.9023 14.1677C22.4037 14.197 22.015 14.2117 21.7363 14.2117C21.6777 14.2117 21.6483 14.1677 21.6483 14.0797C21.6483 13.9917 21.6777 13.9477 21.7363 13.9477C22.1763 13.9477 22.4917 13.9037 22.6823 13.8157C22.873 13.713 22.9683 13.5517 22.9683 13.3317C22.9683 13.1117 22.8437 12.7377 22.5943 12.2097L17.9963 2.85967L18.8983 1.38567L14.5423 11.1977C14.3517 11.6377 14.2563 12.0337 14.2563 12.3857C14.2563 12.899 14.4397 13.2877 14.8063 13.5517C15.173 13.8157 15.6863 13.9477 16.3463 13.9477C16.4197 13.9477 16.4563 13.9917 16.4563 14.0797C16.4563 14.1677 16.4197 14.2117 16.3463 14.2117C16.0823 14.2117 15.701 14.197 15.2023 14.1677C14.645 14.1383 14.161 14.1237 13.7503 14.1237C13.3543 14.1237 12.8923 14.1383 12.3643 14.1677C11.895 14.197 11.5063 14.2117 11.1983 14.2117C11.125 14.2117 11.0883 14.1677 11.0883 14.0797C11.0883 13.9917 11.125 13.9477 11.1983 13.9477C11.609 13.9477 11.9537 13.867 12.2323 13.7057C12.511 13.5443 12.7823 13.2583 13.0463 12.8477C13.3103 12.4223 13.6257 11.799 13.9923 10.9777L18.7223 0.329671C18.7517 0.285671 18.8177 0.263672 18.9203 0.263672C19.023 0.263672 19.0817 0.285671 19.0963 0.329671L24.4863 11.1977C24.985 12.2537 25.403 12.9797 25.7403 13.3757C26.0923 13.757 26.4737 13.9477 26.8843 13.9477Z" fill="white"/>
<path d="M3.806 12.3419C3.806 12.7232 3.84267 13.0092 3.916 13.1999C3.98933 13.3759 4.12133 13.4932 4.312 13.5519C4.50267 13.6106 4.81067 13.6399 5.236 13.6399H6.556C7.59733 13.6399 8.47733 13.3539 9.196 12.7819C9.91467 12.1952 10.3913 11.4106 10.626 10.4279C10.626 10.3986 10.6553 10.3839 10.714 10.3839C10.7433 10.3839 10.7727 10.3986 10.802 10.4279C10.846 10.4426 10.868 10.4572 10.868 10.4719C10.736 11.8212 10.67 12.9579 10.67 13.8819C10.67 13.9992 10.648 14.0872 10.604 14.1459C10.56 14.1899 10.472 14.2119 10.34 14.2119H0.044C0.0146667 14.2119 0 14.1679 0 14.0799C0 13.9919 0.0146667 13.9479 0.044 13.9479C0.542667 13.9479 0.902 13.9112 1.122 13.8379C1.35667 13.7646 1.51067 13.6252 1.584 13.4199C1.672 13.1999 1.716 12.8699 1.716 12.4299V2.24391C1.716 1.80391 1.672 1.48125 1.584 1.27591C1.51067 1.07058 1.35667 0.931246 1.122 0.857913C0.887333 0.769913 0.528 0.725913 0.044 0.725913C0.0146667 0.725913 0 0.681913 0 0.593914C0 0.505914 0.0146667 0.461914 0.044 0.461914L1.166 0.483914C1.81133 0.513247 2.33933 0.527913 2.75 0.527913C3.19 0.527913 3.73267 0.513247 4.378 0.483914L5.478 0.461914C5.522 0.461914 5.544 0.505914 5.544 0.593914C5.544 0.681913 5.522 0.725913 5.478 0.725913C4.994 0.725913 4.63467 0.769913 4.4 0.857913C4.16533 0.931246 4.004 1.07791 3.916 1.29791C3.84267 1.50325 3.806 1.82591 3.806 2.26591V12.3419Z" fill="white"/>
</svg>
