<svg width="251" height="15" viewBox="0 0 251 15" fill="none" xmlns="http://www.w3.org/2000/svg">
<path d="M240.266 14.212C240.222 14.212 240.2 14.168 240.2 14.08C240.2 13.992 240.222 13.948 240.266 13.948C240.765 13.948 241.124 13.9113 241.344 13.838C241.579 13.7647 241.733 13.6253 241.806 13.42C241.894 13.2 241.938 12.87 241.938 12.43V2.24401C241.938 1.80401 241.894 1.48134 241.806 1.27601C241.733 1.07067 241.579 0.931338 241.344 0.858005C241.109 0.770005 240.75 0.726005 240.266 0.726005C240.222 0.726005 240.2 0.682005 240.2 0.594005C240.2 0.506005 240.222 0.462006 240.266 0.462006H249.418C249.565 0.462006 249.638 0.528005 249.638 0.660005L249.682 3.52001C249.682 3.54934 249.638 3.57134 249.55 3.58601C249.477 3.58601 249.433 3.56401 249.418 3.52001C249.066 1.86267 248.054 1.034 246.382 1.034H245.48C244.937 1.034 244.556 1.12934 244.336 1.32001C244.131 1.51067 244.028 1.83334 244.028 2.288V12.342C244.028 12.826 244.116 13.1633 244.292 13.354C244.483 13.5447 244.813 13.64 245.282 13.64H246.36C248.325 13.64 249.572 12.694 250.1 10.802C250.1 10.7727 250.137 10.758 250.21 10.758C250.313 10.758 250.364 10.78 250.364 10.824C250.217 11.9387 250.144 12.958 250.144 13.882C250.144 13.9993 250.122 14.0873 250.078 14.146C250.034 14.19 249.946 14.212 249.814 14.212H240.266ZM248.582 9.24001C248.582 7.97867 247.761 7.34801 246.118 7.34801H243.038V6.776H246.14C247.753 6.776 248.56 6.23334 248.56 5.148C248.56 5.104 248.597 5.08201 248.67 5.08201C248.758 5.08201 248.802 5.104 248.802 5.148L248.78 7.06201L248.802 8.09601C248.831 8.56534 248.846 8.94667 248.846 9.24001C248.846 9.26934 248.802 9.28401 248.714 9.28401C248.626 9.28401 248.582 9.26934 248.582 9.24001Z" fill="#2D2D2D"/>
<path d="M230.934 14.3C230.479 14.3 229.944 14.278 229.328 14.234C229.108 14.2193 228.829 14.2047 228.492 14.19C228.154 14.1753 227.78 14.168 227.37 14.168L225.808 14.19C225.529 14.2047 225.14 14.212 224.642 14.212C224.612 14.212 224.598 14.168 224.598 14.08C224.598 13.992 224.612 13.948 224.642 13.948C225.14 13.948 225.5 13.9113 225.72 13.838C225.954 13.7647 226.116 13.6253 226.204 13.42C226.292 13.2 226.336 12.87 226.336 12.43V2.244C226.336 1.804 226.292 1.48133 226.204 1.276C226.13 1.07067 225.976 0.931332 225.742 0.857999C225.507 0.769999 225.148 0.725999 224.664 0.725999C224.634 0.725999 224.62 0.681999 224.62 0.593999C224.62 0.506 224.634 0.462 224.664 0.462L225.83 0.484C226.475 0.513333 226.988 0.527999 227.37 0.527999C227.942 0.527999 228.536 0.505999 229.152 0.462C229.885 0.432666 230.376 0.417999 230.626 0.417999C232.122 0.417999 233.449 0.711332 234.608 1.298C235.766 1.88467 236.661 2.684 237.292 3.696C237.937 4.708 238.26 5.84467 238.26 7.106C238.26 8.52867 237.93 9.79 237.27 10.89C236.61 11.9753 235.722 12.8187 234.608 13.42C233.493 14.0067 232.268 14.3 230.934 14.3ZM230.714 13.86C231.726 13.86 232.62 13.618 233.398 13.134C234.19 12.65 234.806 11.9387 235.246 11C235.686 10.0467 235.906 8.91 235.906 7.59C235.906 6.32867 235.693 5.192 235.268 4.18C234.857 3.15333 234.27 2.34667 233.508 1.76C232.745 1.15867 231.858 0.857999 230.846 0.857999C230.215 0.857999 229.731 0.894665 229.394 0.967999C229.071 1.04133 228.829 1.18067 228.668 1.386C228.506 1.57667 228.426 1.87733 228.426 2.288V12.188C228.426 12.7893 228.58 13.222 228.888 13.486C229.21 13.7353 229.819 13.86 230.714 13.86Z" fill="#2D2D2D"/>
<path d="M212.521 8.27201H218.681L218.835 8.82201H212.235L212.521 8.27201ZM223.939 13.948C223.998 13.948 224.027 13.992 224.027 14.08C224.027 14.168 223.998 14.212 223.939 14.212C223.66 14.212 223.213 14.1973 222.597 14.168C221.981 14.1387 221.534 14.124 221.255 14.124C220.888 14.124 220.456 14.1387 219.957 14.168C219.458 14.1973 219.07 14.212 218.791 14.212C218.732 14.212 218.703 14.168 218.703 14.08C218.703 13.992 218.732 13.948 218.791 13.948C219.231 13.948 219.546 13.904 219.737 13.816C219.928 13.7133 220.023 13.552 220.023 13.332C220.023 13.112 219.898 12.738 219.649 12.21L215.051 2.86001L215.953 1.38601L211.597 11.198C211.406 11.638 211.311 12.034 211.311 12.386C211.311 12.8993 211.494 13.288 211.861 13.552C212.228 13.816 212.741 13.948 213.401 13.948C213.474 13.948 213.511 13.992 213.511 14.08C213.511 14.168 213.474 14.212 213.401 14.212C213.137 14.212 212.756 14.1973 212.257 14.168C211.7 14.1387 211.216 14.124 210.805 14.124C210.409 14.124 209.947 14.1387 209.419 14.168C208.95 14.1973 208.561 14.212 208.253 14.212C208.18 14.212 208.143 14.168 208.143 14.08C208.143 13.992 208.18 13.948 208.253 13.948C208.664 13.948 209.008 13.8673 209.287 13.706C209.566 13.5447 209.837 13.2587 210.101 12.848C210.365 12.4227 210.68 11.7993 211.047 10.978L215.777 0.330007C215.806 0.286007 215.872 0.264008 215.975 0.264008C216.078 0.264008 216.136 0.286007 216.151 0.330007L221.541 11.198C222.04 12.254 222.458 12.98 222.795 13.376C223.147 13.7573 223.528 13.948 223.939 13.948Z" fill="#2D2D2D"/>
<path d="M200.861 12.342C200.861 12.7233 200.897 13.0093 200.971 13.2C201.044 13.376 201.176 13.4933 201.367 13.552C201.557 13.6107 201.865 13.64 202.291 13.64H203.611C204.652 13.64 205.532 13.354 206.251 12.782C206.969 12.1953 207.446 11.4107 207.681 10.428C207.681 10.3987 207.71 10.384 207.769 10.384C207.798 10.384 207.827 10.3987 207.857 10.428C207.901 10.4427 207.923 10.4573 207.923 10.472C207.791 11.8213 207.725 12.958 207.725 13.882C207.725 13.9993 207.703 14.0873 207.659 14.146C207.615 14.19 207.527 14.212 207.395 14.212H197.099C197.069 14.212 197.055 14.168 197.055 14.08C197.055 13.992 197.069 13.948 197.099 13.948C197.597 13.948 197.957 13.9113 198.177 13.838C198.411 13.7647 198.565 13.6253 198.639 13.42C198.727 13.2 198.771 12.87 198.771 12.43V2.24401C198.771 1.80401 198.727 1.48134 198.639 1.27601C198.565 1.07067 198.411 0.931338 198.177 0.858005C197.942 0.770005 197.583 0.726005 197.099 0.726005C197.069 0.726005 197.055 0.682005 197.055 0.594005C197.055 0.506005 197.069 0.462006 197.099 0.462006L198.221 0.484005C198.866 0.513338 199.394 0.528005 199.805 0.528005C200.245 0.528005 200.787 0.513338 201.433 0.484005L202.533 0.462006C202.577 0.462006 202.599 0.506005 202.599 0.594005C202.599 0.682005 202.577 0.726005 202.533 0.726005C202.049 0.726005 201.689 0.770005 201.455 0.858005C201.22 0.931338 201.059 1.078 200.971 1.29801C200.897 1.50334 200.861 1.826 200.861 2.266V12.342Z" fill="#2D2D2D"/>
<path d="M188.852 2.794C188.852 3.33667 188.984 3.82067 189.248 4.246C189.527 4.65667 189.864 5.016 190.26 5.324C190.656 5.61733 191.199 5.984 191.888 6.424C192.636 6.89333 193.223 7.29667 193.648 7.634C194.088 7.97133 194.462 8.38933 194.77 8.888C195.078 9.372 195.232 9.944 195.232 10.604C195.232 11.352 195.034 12.0193 194.638 12.606C194.257 13.1927 193.707 13.6547 192.988 13.992C192.284 14.3147 191.478 14.476 190.568 14.476C189.952 14.476 189.314 14.3953 188.654 14.234C188.009 14.0727 187.518 13.8747 187.18 13.64C187.048 13.552 186.975 13.4127 186.96 13.222L186.828 9.9V9.878C186.828 9.81934 186.865 9.79 186.938 9.79C187.012 9.77533 187.056 9.79733 187.07 9.856C187.554 11.0587 188.104 12.0487 188.72 12.826C189.351 13.6033 190.143 13.992 191.096 13.992C191.742 13.992 192.277 13.8233 192.702 13.486C193.128 13.134 193.34 12.5547 193.34 11.748C193.34 11.1027 193.194 10.538 192.9 10.054C192.622 9.57 192.27 9.16667 191.844 8.844C191.434 8.52134 190.869 8.12534 190.15 7.656C189.446 7.20133 188.896 6.82 188.5 6.512C188.104 6.18933 187.767 5.80067 187.488 5.346C187.21 4.87667 187.07 4.334 187.07 3.718C187.07 2.95533 187.283 2.31 187.708 1.782C188.134 1.254 188.684 0.865335 189.358 0.616001C190.048 0.352001 190.766 0.220001 191.514 0.220001C191.998 0.220001 192.49 0.271334 192.988 0.374002C193.487 0.462001 193.912 0.579334 194.264 0.726001C194.484 0.814001 194.594 0.953334 194.594 1.144L194.638 4.114C194.638 4.17267 194.602 4.20933 194.528 4.224C194.47 4.23867 194.426 4.224 194.396 4.18C194.103 3.28533 193.707 2.47867 193.208 1.76C192.724 1.02667 191.991 0.660001 191.008 0.660001C190.348 0.660001 189.82 0.858001 189.424 1.254C189.043 1.63533 188.852 2.14867 188.852 2.794Z" fill="#2D2D2D"/>
<path d="M171.881 0.968004L172.475 1.012V11.55C172.475 12.3273 172.622 12.9213 172.915 13.332C173.223 13.7427 173.67 13.948 174.257 13.948C174.301 13.948 174.323 13.992 174.323 14.08C174.323 14.168 174.301 14.212 174.257 14.212C173.876 14.212 173.582 14.2047 173.377 14.19L172.211 14.168L170.913 14.19C170.678 14.2047 170.341 14.212 169.901 14.212C169.857 14.212 169.835 14.168 169.835 14.08C169.835 13.992 169.857 13.948 169.901 13.948C170.532 13.948 171.016 13.7427 171.353 13.332C171.705 12.9213 171.881 12.3273 171.881 11.55V0.968004ZM183.057 14.52C183.057 14.564 183.02 14.5933 182.947 14.608C182.874 14.6227 182.822 14.6153 182.793 14.586L172.211 2.266C171.712 1.69401 171.272 1.29801 170.891 1.07801C170.51 0.843339 170.136 0.726005 169.769 0.726005C169.725 0.726005 169.703 0.682005 169.703 0.594005C169.703 0.506005 169.725 0.462006 169.769 0.462006L170.649 0.484005C170.825 0.498672 171.089 0.506005 171.441 0.506005L172.849 0.484005C173.025 0.469339 173.23 0.462006 173.465 0.462006C173.582 0.462006 173.67 0.491339 173.729 0.550004C173.788 0.608671 173.876 0.726005 173.993 0.902005C174.242 1.23934 174.426 1.47401 174.543 1.60601L182.881 11.418L183.057 14.52ZM183.057 14.52L182.463 13.86V3.14601C182.463 2.36867 182.309 1.77467 182.001 1.364C181.708 0.938671 181.268 0.726005 180.681 0.726005C180.652 0.726005 180.637 0.682005 180.637 0.594005C180.637 0.506005 180.652 0.462006 180.681 0.462006L181.583 0.484005C182.052 0.513338 182.441 0.528005 182.749 0.528005C183.028 0.528005 183.431 0.513338 183.959 0.484005L184.883 0.462006C184.927 0.462006 184.949 0.506005 184.949 0.594005C184.949 0.682005 184.927 0.726005 184.883 0.726005C184.296 0.726005 183.842 0.938671 183.519 1.364C183.211 1.77467 183.057 2.36867 183.057 3.14601V14.52Z" fill="#2D2D2D"/>
<path d="M166.45 12.43C166.45 12.8847 166.487 13.2147 166.56 13.42C166.648 13.6253 166.802 13.7647 167.022 13.838C167.257 13.9113 167.623 13.948 168.122 13.948C168.166 13.948 168.188 13.992 168.188 14.08C168.188 14.168 168.166 14.212 168.122 14.212C167.653 14.212 167.279 14.2047 167 14.19L165.372 14.168L163.788 14.19C163.509 14.2047 163.128 14.212 162.644 14.212C162.6 14.212 162.578 14.168 162.578 14.08C162.578 13.992 162.6 13.948 162.644 13.948C163.143 13.948 163.502 13.9113 163.722 13.838C163.957 13.7647 164.118 13.6253 164.206 13.42C164.294 13.2 164.338 12.87 164.338 12.43V2.24401C164.338 1.80401 164.294 1.48134 164.206 1.27601C164.118 1.07067 163.957 0.931338 163.722 0.858005C163.502 0.770005 163.143 0.726005 162.644 0.726005C162.6 0.726005 162.578 0.682005 162.578 0.594005C162.578 0.506005 162.6 0.462006 162.644 0.462006L163.788 0.484005C164.433 0.513338 164.961 0.528005 165.372 0.528005C165.827 0.528005 166.377 0.513338 167.022 0.484005L168.122 0.462006C168.166 0.462006 168.188 0.506005 168.188 0.594005C168.188 0.682005 168.166 0.726005 168.122 0.726005C167.638 0.726005 167.279 0.770005 167.044 0.858005C166.809 0.946005 166.648 1.10001 166.56 1.32001C166.487 1.52534 166.45 1.848 166.45 2.288V12.43Z" fill="#2D2D2D"/>
<path d="M149.335 14.19C149.32 14.2487 149.239 14.278 149.093 14.278C148.946 14.278 148.865 14.2487 148.851 14.19L143.285 2.288C142.977 1.64267 142.713 1.22467 142.493 1.034C142.287 0.828671 141.972 0.726005 141.547 0.726005C141.503 0.726005 141.481 0.682005 141.481 0.594005C141.481 0.506005 141.503 0.462006 141.547 0.462006L142.119 0.484005C142.471 0.513338 142.837 0.528005 143.219 0.528005C144.055 0.528005 144.795 0.513338 145.441 0.484005C145.646 0.469339 145.903 0.462006 146.211 0.462006C146.255 0.462006 146.277 0.506005 146.277 0.594005C146.277 0.682005 146.255 0.726005 146.211 0.726005C145.829 0.726005 145.551 0.770005 145.375 0.858005C145.199 0.931338 145.111 1.07067 145.111 1.27601C145.111 1.49601 145.25 1.90667 145.529 2.50801L149.929 11.902L149.049 13.266L151.689 6.40201L152.085 6.974L149.335 14.19ZM161.787 0.462006C161.816 0.462006 161.831 0.506005 161.831 0.594005C161.831 0.682005 161.816 0.726005 161.787 0.726005C161.259 0.726005 160.775 0.924005 160.335 1.32001C159.895 1.71601 159.528 2.28801 159.235 3.03601L154.967 14.19C154.952 14.2487 154.871 14.278 154.725 14.278C154.578 14.278 154.497 14.2487 154.483 14.19L148.917 2.288C148.667 1.76 148.425 1.37134 148.191 1.122C147.956 0.858005 147.685 0.726005 147.377 0.726005C147.333 0.726005 147.311 0.682005 147.311 0.594005C147.311 0.506005 147.333 0.462006 147.377 0.462006L147.905 0.484005C148.227 0.513338 148.55 0.528005 148.873 0.528005C149.562 0.528005 150.171 0.513338 150.699 0.484005C150.845 0.469339 151.036 0.462006 151.271 0.462006C151.315 0.462006 151.337 0.506005 151.337 0.594005C151.337 0.682005 151.315 0.726005 151.271 0.726005C151.051 0.726005 150.889 0.755338 150.787 0.814005C150.684 0.858005 150.633 0.953339 150.633 1.10001C150.633 1.21734 150.677 1.40067 150.765 1.65C150.867 1.89934 150.992 2.18534 151.139 2.50801L155.583 11.902L154.703 13.266L158.597 3.10201C158.743 2.72067 158.817 2.36134 158.817 2.024C158.817 1.61334 158.692 1.29801 158.443 1.07801C158.208 0.843339 157.871 0.726005 157.431 0.726005C157.387 0.726005 157.365 0.682005 157.365 0.594005C157.365 0.506005 157.387 0.462006 157.431 0.462006L158.399 0.484005C158.927 0.513338 159.403 0.528005 159.829 0.528005C160.122 0.528005 160.459 0.513338 160.841 0.484005L161.787 0.462006ZM153.141 2.948C153.405 2.25867 153.537 1.73801 153.537 1.38601C153.537 0.946005 153.317 0.726005 152.877 0.726005C152.833 0.726005 152.811 0.682005 152.811 0.594005C152.811 0.506005 152.833 0.462006 152.877 0.462006C153.009 0.462006 153.163 0.476672 153.339 0.506005C153.515 0.520672 153.837 0.528005 154.307 0.528005C154.571 0.528005 154.879 0.513338 155.231 0.484005L156.089 0.462006C156.118 0.462006 156.133 0.506005 156.133 0.594005C156.133 0.682005 156.118 0.726005 156.089 0.726005C155.59 0.726005 155.15 0.909339 154.769 1.27601C154.387 1.64267 154.043 2.22934 153.735 3.03601L152.217 6.974L151.821 6.40201L153.141 2.948Z" fill="#2D2D2D"/>
<path d="M128.669 2.618C128.669 1.97267 128.507 1.46667 128.185 1.1C127.877 0.733333 127.466 0.55 126.953 0.55C126.058 0.55 125.611 1.13667 125.611 2.31C125.611 3.79133 126.219 5.33867 127.437 6.952C128.654 8.56533 130.165 10.054 131.969 11.418C132.937 12.1367 133.809 12.716 134.587 13.156C135.364 13.5813 135.987 13.8453 136.457 13.948C136.515 13.9627 136.537 14.014 136.523 14.102C136.523 14.1753 136.501 14.212 136.457 14.212H133.289C132.658 14.212 131.477 13.508 129.747 12.1C128.661 11.2347 127.627 10.2813 126.645 9.24C125.677 8.184 124.943 7.18667 124.445 6.248C124.239 5.82267 124.078 5.42667 123.961 5.06C123.858 4.67867 123.807 4.28267 123.807 3.872C123.807 3.13867 123.968 2.47867 124.291 1.892C124.628 1.30533 125.097 0.843334 125.699 0.506001C126.315 0.168667 127.026 0 127.833 0C128.669 0 129.343 0.183333 129.857 0.55C130.385 0.916667 130.649 1.46667 130.649 2.2C130.649 2.75733 130.502 3.26333 130.209 3.718C129.915 4.17267 129.549 4.56867 129.109 4.906C128.683 5.24333 128.111 5.654 127.393 6.138C126.659 6.622 126.073 7.04 125.633 7.392C125.207 7.744 124.841 8.15467 124.533 8.624C124.239 9.09333 124.093 9.614 124.093 10.186C124.093 10.7727 124.254 11.33 124.577 11.858C124.899 12.3713 125.361 12.782 125.963 13.09C126.564 13.398 127.253 13.552 128.031 13.552C129.277 13.552 130.238 13.134 130.913 12.298C131.602 11.462 131.947 10.3473 131.947 8.954C131.947 8.206 131.815 7.66333 131.551 7.326C131.301 6.974 130.861 6.798 130.231 6.798C130.201 6.798 130.179 6.754 130.165 6.666C130.165 6.578 130.187 6.534 130.231 6.534L135.247 6.512C135.305 6.512 135.335 6.556 135.335 6.644C135.335 6.732 135.305 6.776 135.247 6.776C134.792 6.776 134.447 6.82733 134.213 6.93C133.993 7.018 133.831 7.16467 133.729 7.37C133.626 7.56067 133.509 7.876 133.377 8.316C133.083 9.372 132.709 10.34 132.255 11.22C131.815 12.0853 131.125 12.848 130.187 13.508C129.263 14.1533 128.06 14.476 126.579 14.476C125.596 14.476 124.775 14.3293 124.115 14.036C123.455 13.728 122.963 13.332 122.641 12.848C122.318 12.364 122.157 11.8433 122.157 11.286C122.157 10.7433 122.296 10.2447 122.575 9.79C122.853 9.32067 123.198 8.90267 123.609 8.536C124.034 8.16933 124.591 7.72933 125.281 7.216C126.029 6.65867 126.623 6.182 127.063 5.786C127.517 5.37533 127.899 4.906 128.207 4.378C128.515 3.85 128.669 3.26333 128.669 2.618Z" fill="#2D2D2D"/>
<path d="M104.463 14.212C104.419 14.212 104.397 14.168 104.397 14.08C104.397 13.992 104.419 13.948 104.463 13.948C104.962 13.948 105.321 13.9113 105.541 13.838C105.776 13.7647 105.93 13.6253 106.003 13.42C106.091 13.2 106.135 12.87 106.135 12.43V2.24401C106.135 1.80401 106.091 1.48134 106.003 1.27601C105.93 1.07067 105.776 0.931338 105.541 0.858005C105.307 0.770005 104.947 0.726005 104.463 0.726005C104.419 0.726005 104.397 0.682005 104.397 0.594005C104.397 0.506005 104.419 0.462006 104.463 0.462006H113.615C113.762 0.462006 113.835 0.528005 113.835 0.660005L113.879 3.52001C113.879 3.54934 113.835 3.57134 113.747 3.58601C113.674 3.58601 113.63 3.56401 113.615 3.52001C113.263 1.86267 112.251 1.034 110.579 1.034H109.677C109.135 1.034 108.753 1.12934 108.533 1.32001C108.328 1.51067 108.225 1.83334 108.225 2.288V12.342C108.225 12.826 108.313 13.1633 108.489 13.354C108.68 13.5447 109.01 13.64 109.479 13.64H110.557C112.523 13.64 113.769 12.694 114.297 10.802C114.297 10.7727 114.334 10.758 114.407 10.758C114.51 10.758 114.561 10.78 114.561 10.824C114.415 11.9387 114.341 12.958 114.341 13.882C114.341 13.9993 114.319 14.0873 114.275 14.146C114.231 14.19 114.143 14.212 114.011 14.212H104.463ZM112.779 9.24001C112.779 7.97867 111.958 7.34801 110.315 7.34801H107.235V6.776H110.337C111.951 6.776 112.757 6.23334 112.757 5.148C112.757 5.104 112.794 5.08201 112.867 5.08201C112.955 5.08201 112.999 5.104 112.999 5.148L112.977 7.06201L112.999 8.09601C113.029 8.56534 113.043 8.94667 113.043 9.24001C113.043 9.26934 112.999 9.28401 112.911 9.28401C112.823 9.28401 112.779 9.26934 112.779 9.24001Z" fill="#2D2D2D"/>
<path d="M97.8056 0.220001C99.4336 0.220001 100.746 0.447334 101.744 0.902001C101.861 0.960668 101.934 1.01934 101.964 1.078C101.993 1.122 102.022 1.232 102.052 1.408L102.316 4.312C102.316 4.356 102.279 4.38533 102.206 4.4C102.132 4.41467 102.081 4.39267 102.052 4.334C101.67 3.13134 101.098 2.21467 100.336 1.584C99.5876 0.953334 98.6563 0.638001 97.5416 0.638001C96.4563 0.638001 95.4956 0.909334 94.6596 1.452C93.8236 1.98 93.1709 2.75 92.7016 3.762C92.2323 4.75933 91.9976 5.92533 91.9976 7.26C91.9976 8.58 92.2469 9.76067 92.7456 10.802C93.2443 11.8287 93.9263 12.628 94.7916 13.2C95.6569 13.772 96.6323 14.058 97.7176 14.058C98.7883 14.058 99.6756 13.7793 100.38 13.222C101.098 12.65 101.729 11.748 102.272 10.516C102.286 10.472 102.33 10.4573 102.404 10.472C102.477 10.4867 102.514 10.5087 102.514 10.538L102.228 13.156C102.198 13.332 102.169 13.4493 102.14 13.508C102.11 13.552 102.037 13.6033 101.92 13.662C100.6 14.2047 99.1916 14.476 97.6956 14.476C96.1409 14.476 94.7476 14.1827 93.5156 13.596C92.2836 12.9947 91.3229 12.1587 90.6336 11.088C89.9443 10.0027 89.5996 8.76334 89.5996 7.37C89.5996 5.99133 89.9516 4.75933 90.6556 3.674C91.3743 2.58867 92.3569 1.74533 93.6036 1.144C94.8503 0.528001 96.2509 0.220001 97.8056 0.220001Z" fill="#2D2D2D"/>
<path d="M75.1583 0.968004L75.7523 1.012V11.55C75.7523 12.3273 75.899 12.9213 76.1923 13.332C76.5003 13.7427 76.9477 13.948 77.5343 13.948C77.5783 13.948 77.6003 13.992 77.6003 14.08C77.6003 14.168 77.5783 14.212 77.5343 14.212C77.153 14.212 76.8597 14.2047 76.6544 14.19L75.4883 14.168L74.1903 14.19C73.9557 14.2047 73.6183 14.212 73.1783 14.212C73.1343 14.212 73.1124 14.168 73.1124 14.08C73.1124 13.992 73.1343 13.948 73.1783 13.948C73.809 13.948 74.293 13.7427 74.6303 13.332C74.9823 12.9213 75.1583 12.3273 75.1583 11.55V0.968004ZM86.3344 14.52C86.3344 14.564 86.2977 14.5933 86.2243 14.608C86.151 14.6227 86.0997 14.6153 86.0704 14.586L75.4883 2.266C74.9897 1.69401 74.5497 1.29801 74.1684 1.07801C73.787 0.843339 73.413 0.726005 73.0463 0.726005C73.0023 0.726005 72.9803 0.682005 72.9803 0.594005C72.9803 0.506005 73.0023 0.462006 73.0463 0.462006L73.9263 0.484005C74.1023 0.498672 74.3663 0.506005 74.7183 0.506005L76.1264 0.484005C76.3024 0.469339 76.5077 0.462006 76.7423 0.462006C76.8597 0.462006 76.9477 0.491339 77.0063 0.550004C77.065 0.608671 77.153 0.726005 77.2703 0.902005C77.5197 1.23934 77.703 1.47401 77.8204 1.60601L86.1583 11.418L86.3344 14.52ZM86.3344 14.52L85.7403 13.86V3.14601C85.7403 2.36867 85.5864 1.77467 85.2784 1.364C84.985 0.938671 84.545 0.726005 83.9584 0.726005C83.929 0.726005 83.9143 0.682005 83.9143 0.594005C83.9143 0.506005 83.929 0.462006 83.9584 0.462006L84.8604 0.484005C85.3297 0.513338 85.7184 0.528005 86.0264 0.528005C86.305 0.528005 86.7084 0.513338 87.2364 0.484005L88.1603 0.462006C88.2043 0.462006 88.2263 0.506005 88.2263 0.594005C88.2263 0.682005 88.2043 0.726005 88.1603 0.726005C87.5737 0.726005 87.119 0.938671 86.7963 1.364C86.4883 1.77467 86.3344 2.36867 86.3344 3.14601V14.52Z" fill="#2D2D2D"/>
<path d="M61.3011 14.212C61.2571 14.212 61.2351 14.168 61.2351 14.08C61.2351 13.992 61.2571 13.948 61.3011 13.948C61.7998 13.948 62.1591 13.9113 62.3791 13.838C62.6138 13.7647 62.7678 13.6253 62.8411 13.42C62.9291 13.2 62.9731 12.87 62.9731 12.43V2.24401C62.9731 1.80401 62.9291 1.48134 62.8411 1.27601C62.7678 1.07067 62.6138 0.931338 62.3791 0.858005C62.1444 0.770005 61.7851 0.726005 61.3011 0.726005C61.2571 0.726005 61.2351 0.682005 61.2351 0.594005C61.2351 0.506005 61.2571 0.462006 61.3011 0.462006H70.4531C70.5998 0.462006 70.6731 0.528005 70.6731 0.660005L70.7171 3.52001C70.7171 3.54934 70.6731 3.57134 70.5851 3.58601C70.5118 3.58601 70.4678 3.56401 70.4531 3.52001C70.1011 1.86267 69.0891 1.034 67.4171 1.034H66.5151C65.9724 1.034 65.5911 1.12934 65.3711 1.32001C65.1658 1.51067 65.0631 1.83334 65.0631 2.288V12.342C65.0631 12.826 65.1511 13.1633 65.3271 13.354C65.5178 13.5447 65.8478 13.64 66.3171 13.64H67.3951C69.3604 13.64 70.6071 12.694 71.1351 10.802C71.1351 10.7727 71.1718 10.758 71.2451 10.758C71.3478 10.758 71.3991 10.78 71.3991 10.824C71.2524 11.9387 71.1791 12.958 71.1791 13.882C71.1791 13.9993 71.1571 14.0873 71.1131 14.146C71.0691 14.19 70.9811 14.212 70.8491 14.212H61.3011ZM69.6171 9.24001C69.6171 7.97867 68.7958 7.34801 67.1531 7.34801H64.0731V6.776H67.1751C68.7884 6.776 69.5951 6.23334 69.5951 5.148C69.5951 5.104 69.6318 5.08201 69.7051 5.08201C69.7931 5.08201 69.8371 5.104 69.8371 5.148L69.8151 7.06201L69.8371 8.09601C69.8664 8.56534 69.8811 8.94667 69.8811 9.24001C69.8811 9.26934 69.8371 9.28401 69.7491 9.28401C69.6611 9.28401 69.6171 9.26934 69.6171 9.24001Z" fill="#2D2D2D"/>
<path d="M57.0451 14.212C56.6931 14.212 56.0405 13.596 55.0871 12.364C54.1485 11.132 53.0045 9.416 51.6551 7.216L53.4151 6.688C54.6471 8.52133 55.6738 9.95866 56.4951 11C57.3311 12.0267 58.0718 12.7747 58.7171 13.244C59.3625 13.7133 59.9858 13.948 60.5871 13.948C60.6165 13.948 60.6311 13.992 60.6311 14.08C60.6311 14.168 60.6165 14.212 60.5871 14.212H57.0451ZM52.0511 0.395996C53.3125 0.395996 54.2951 0.652662 54.9991 1.166C55.7031 1.66466 56.0551 2.354 56.0551 3.234C56.0551 4.05533 55.8205 4.796 55.3511 5.456C54.8818 6.116 54.2585 6.63666 53.4811 7.018C52.7185 7.38466 51.9118 7.568 51.0611 7.568C50.7531 7.568 50.3791 7.55333 49.9391 7.524V12.43C49.9391 12.8847 49.9758 13.2147 50.0491 13.42C50.1225 13.6253 50.2691 13.7647 50.4891 13.838C50.7238 13.9113 51.0978 13.948 51.6111 13.948C51.6405 13.948 51.6551 13.992 51.6551 14.08C51.6551 14.168 51.6405 14.212 51.6111 14.212C51.1271 14.212 50.7458 14.2047 50.4671 14.19L48.8611 14.168L47.2771 14.19C46.9985 14.2047 46.6171 14.212 46.1331 14.212C46.0891 14.212 46.0671 14.168 46.0671 14.08C46.0671 13.992 46.0891 13.948 46.1331 13.948C46.6318 13.948 46.9911 13.9113 47.2111 13.838C47.4458 13.7647 47.6071 13.6253 47.6951 13.42C47.7831 13.2 47.8271 12.87 47.8271 12.43V2.244C47.8271 1.804 47.7831 1.48133 47.6951 1.276C47.6218 1.07066 47.4678 0.931329 47.2331 0.857996C46.9985 0.769996 46.6391 0.725996 46.1551 0.725996C46.1258 0.725996 46.1111 0.681996 46.1111 0.593996C46.1111 0.505996 46.1258 0.461997 46.1551 0.461997L47.2991 0.483996C47.9445 0.513329 48.4651 0.527996 48.8611 0.527996C49.3451 0.527996 49.8731 0.505996 50.4451 0.461997C50.6358 0.447329 50.8631 0.432662 51.1271 0.417996C51.4058 0.403329 51.7138 0.395996 52.0511 0.395996ZM53.8771 4.004C53.8771 2.816 53.6718 1.98733 53.2611 1.518C52.8651 1.04866 52.2858 0.813996 51.5231 0.813996C50.9365 0.813996 50.5258 0.923996 50.2911 1.144C50.0565 1.34933 49.9391 1.73066 49.9391 2.28799V6.93C50.2911 6.98866 50.7165 7.018 51.2151 7.018C52.1685 7.018 52.8505 6.78333 53.2611 6.314C53.6718 5.83 53.8771 5.06 53.8771 4.004Z" fill="#2D2D2D"/>
<path d="M32.8678 14.19C32.8531 14.2487 32.7725 14.278 32.6258 14.278C32.4791 14.278 32.3985 14.2487 32.3838 14.19L26.8178 2.288C26.5098 1.64267 26.2458 1.22467 26.0258 1.034C25.8205 0.828671 25.5051 0.726005 25.0798 0.726005C25.0358 0.726005 25.0138 0.682005 25.0138 0.594005C25.0138 0.506005 25.0358 0.462006 25.0798 0.462006L25.6518 0.484005C26.0038 0.513338 26.3705 0.528005 26.7518 0.528005C27.5878 0.528005 28.3285 0.513338 28.9738 0.484005C29.1791 0.469339 29.4358 0.462006 29.7438 0.462006C29.7878 0.462006 29.8098 0.506005 29.8098 0.594005C29.8098 0.682005 29.7878 0.726005 29.7438 0.726005C29.3625 0.726005 29.0838 0.770005 28.9078 0.858005C28.7318 0.931338 28.6438 1.07067 28.6438 1.27601C28.6438 1.49601 28.7831 1.90667 29.0618 2.50801L33.4618 11.902L32.5818 13.266L35.2218 6.40201L35.6178 6.974L32.8678 14.19ZM45.3198 0.462006C45.3491 0.462006 45.3638 0.506005 45.3638 0.594005C45.3638 0.682005 45.3491 0.726005 45.3198 0.726005C44.7918 0.726005 44.3078 0.924005 43.8678 1.32001C43.4278 1.71601 43.0611 2.28801 42.7678 3.03601L38.4998 14.19C38.4851 14.2487 38.4045 14.278 38.2578 14.278C38.1111 14.278 38.0305 14.2487 38.0158 14.19L32.4498 2.288C32.2005 1.76 31.9585 1.37134 31.7238 1.122C31.4891 0.858005 31.2178 0.726005 30.9098 0.726005C30.8658 0.726005 30.8438 0.682005 30.8438 0.594005C30.8438 0.506005 30.8658 0.462006 30.9098 0.462006L31.4378 0.484005C31.7605 0.513338 32.0831 0.528005 32.4058 0.528005C33.0951 0.528005 33.7038 0.513338 34.2318 0.484005C34.3785 0.469339 34.5691 0.462006 34.8038 0.462006C34.8478 0.462006 34.8698 0.506005 34.8698 0.594005C34.8698 0.682005 34.8478 0.726005 34.8038 0.726005C34.5838 0.726005 34.4225 0.755338 34.3198 0.814005C34.2171 0.858005 34.1658 0.953339 34.1658 1.10001C34.1658 1.21734 34.2098 1.40067 34.2978 1.65C34.4005 1.89934 34.5251 2.18534 34.6718 2.50801L39.1158 11.902L38.2358 13.266L42.1298 3.10201C42.2765 2.72067 42.3498 2.36134 42.3498 2.024C42.3498 1.61334 42.2251 1.29801 41.9758 1.07801C41.7411 0.843339 41.4038 0.726005 40.9638 0.726005C40.9198 0.726005 40.8978 0.682005 40.8978 0.594005C40.8978 0.506005 40.9198 0.462006 40.9638 0.462006L41.9318 0.484005C42.4598 0.513338 42.9365 0.528005 43.3618 0.528005C43.6551 0.528005 43.9925 0.513338 44.3738 0.484005L45.3198 0.462006ZM36.6738 2.948C36.9378 2.25867 37.0698 1.73801 37.0698 1.38601C37.0698 0.946005 36.8498 0.726005 36.4098 0.726005C36.3658 0.726005 36.3438 0.682005 36.3438 0.594005C36.3438 0.506005 36.3658 0.462006 36.4098 0.462006C36.5418 0.462006 36.6958 0.476672 36.8718 0.506005C37.0478 0.520672 37.3705 0.528005 37.8398 0.528005C38.1038 0.528005 38.4118 0.513338 38.7638 0.484005L39.6218 0.462006C39.6511 0.462006 39.6658 0.506005 39.6658 0.594005C39.6658 0.682005 39.6511 0.726005 39.6218 0.726005C39.1231 0.726005 38.6831 0.909339 38.3018 1.27601C37.9205 1.64267 37.5758 2.22934 37.2678 3.03601L35.7498 6.974L35.3538 6.40201L36.6738 2.948Z" fill="#2D2D2D"/>
<path d="M15.4663 8.27201H21.6263L21.7803 8.82201H15.1803L15.4663 8.27201ZM26.8843 13.948C26.943 13.948 26.9723 13.992 26.9723 14.08C26.9723 14.168 26.943 14.212 26.8843 14.212C26.6057 14.212 26.1583 14.1973 25.5423 14.168C24.9263 14.1387 24.479 14.124 24.2003 14.124C23.8337 14.124 23.401 14.1387 22.9023 14.168C22.4037 14.1973 22.015 14.212 21.7363 14.212C21.6777 14.212 21.6483 14.168 21.6483 14.08C21.6483 13.992 21.6777 13.948 21.7363 13.948C22.1763 13.948 22.4917 13.904 22.6823 13.816C22.873 13.7133 22.9683 13.552 22.9683 13.332C22.9683 13.112 22.8437 12.738 22.5943 12.21L17.9963 2.86001L18.8983 1.38601L14.5423 11.198C14.3517 11.638 14.2563 12.034 14.2563 12.386C14.2563 12.8993 14.4397 13.288 14.8063 13.552C15.173 13.816 15.6863 13.948 16.3463 13.948C16.4197 13.948 16.4563 13.992 16.4563 14.08C16.4563 14.168 16.4197 14.212 16.3463 14.212C16.0823 14.212 15.701 14.1973 15.2023 14.168C14.645 14.1387 14.161 14.124 13.7503 14.124C13.3543 14.124 12.8923 14.1387 12.3643 14.168C11.895 14.1973 11.5063 14.212 11.1983 14.212C11.125 14.212 11.0883 14.168 11.0883 14.08C11.0883 13.992 11.125 13.948 11.1983 13.948C11.609 13.948 11.9537 13.8673 12.2323 13.706C12.511 13.5447 12.7823 13.2587 13.0463 12.848C13.3103 12.4227 13.6257 11.7993 13.9923 10.978L18.7223 0.330007C18.7517 0.286007 18.8177 0.264008 18.9203 0.264008C19.023 0.264008 19.0817 0.286007 19.0963 0.330007L24.4863 11.198C24.985 12.254 25.403 12.98 25.7403 13.376C26.0923 13.7573 26.4737 13.948 26.8843 13.948Z" fill="#2D2D2D"/>
<path d="M3.806 12.342C3.806 12.7233 3.84267 13.0093 3.916 13.2C3.98933 13.376 4.12133 13.4933 4.312 13.552C4.50267 13.6107 4.81067 13.64 5.236 13.64H6.556C7.59733 13.64 8.47733 13.354 9.196 12.782C9.91467 12.1953 10.3913 11.4107 10.626 10.428C10.626 10.3987 10.6553 10.384 10.714 10.384C10.7433 10.384 10.7727 10.3987 10.802 10.428C10.846 10.4427 10.868 10.4573 10.868 10.472C10.736 11.8213 10.67 12.958 10.67 13.882C10.67 13.9993 10.648 14.0873 10.604 14.146C10.56 14.19 10.472 14.212 10.34 14.212H0.044C0.0146667 14.212 0 14.168 0 14.08C0 13.992 0.0146667 13.948 0.044 13.948C0.542667 13.948 0.902 13.9113 1.122 13.838C1.35667 13.7647 1.51067 13.6253 1.584 13.42C1.672 13.2 1.716 12.87 1.716 12.43V2.24401C1.716 1.80401 1.672 1.48134 1.584 1.27601C1.51067 1.07067 1.35667 0.931338 1.122 0.858005C0.887333 0.770005 0.528 0.726005 0.044 0.726005C0.0146667 0.726005 0 0.682005 0 0.594005C0 0.506005 0.0146667 0.462006 0.044 0.462006L1.166 0.484005C1.81133 0.513338 2.33933 0.528005 2.75 0.528005C3.19 0.528005 3.73267 0.513338 4.378 0.484005L5.478 0.462006C5.522 0.462006 5.544 0.506005 5.544 0.594005C5.544 0.682005 5.522 0.726005 5.478 0.726005C4.994 0.726005 4.63467 0.770005 4.4 0.858005C4.16533 0.931338 4.004 1.078 3.916 1.29801C3.84267 1.50334 3.806 1.826 3.806 2.266V12.342Z" fill="#2D2D2D"/>
</svg>
