<svg width="59" height="19" viewBox="0 0 59 19" fill="none" xmlns="http://www.w3.org/2000/svg">
<path d="M5.481 15.705C5.481 16.173 5.526 16.524 5.616 16.758C5.706 16.974 5.868 17.118 6.102 17.19C6.336 17.262 6.714 17.298 7.236 17.298H8.856C10.134 17.298 11.214 16.947 12.096 16.245C12.978 15.525 13.563 14.562 13.851 13.356C13.851 13.32 13.887 13.302 13.959 13.302C13.995 13.302 14.031 13.32 14.067 13.356C14.121 13.374 14.148 13.392 14.148 13.41C13.986 15.066 13.905 16.461 13.905 17.595C13.905 17.739 13.878 17.847 13.824 17.919C13.77 17.973 13.662 18 13.5 18H0.864C0.828 18 0.81 17.946 0.81 17.838C0.81 17.73 0.828 17.676 0.864 17.676C1.476 17.676 1.917 17.631 2.187 17.541C2.475 17.451 2.664 17.28 2.754 17.028C2.862 16.758 2.916 16.353 2.916 15.813V3.312C2.916 2.772 2.862 2.376 2.754 2.124C2.664 1.872 2.475 1.701 2.187 1.611C1.899 1.503 1.458 1.449 0.864 1.449C0.828 1.449 0.81 1.395 0.81 1.287C0.81 1.179 0.828 1.125 0.864 1.125L2.241 1.152C3.033 1.188 3.681 1.206 4.185 1.206C4.725 1.206 5.391 1.188 6.183 1.152L7.533 1.125C7.587 1.125 7.614 1.179 7.614 1.287C7.614 1.395 7.587 1.449 7.533 1.449C6.939 1.449 6.498 1.503 6.21 1.611C5.922 1.701 5.724 1.881 5.616 2.151C5.526 2.403 5.481 2.799 5.481 3.339V15.705ZM24.3544 3.771C24.3544 2.979 24.1564 2.358 23.7604 1.908C23.3824 1.458 22.8784 1.233 22.2484 1.233C21.1504 1.233 20.6014 1.953 20.6014 3.393C20.6014 5.211 21.3484 7.11 22.8424 9.09C24.3364 11.07 26.1904 12.897 28.4044 14.571C29.5924 15.453 30.6634 16.164 31.6174 16.704C32.5714 17.226 33.3364 17.55 33.9124 17.676C33.9844 17.694 34.0114 17.757 33.9934 17.865C33.9934 17.955 33.9664 18 33.9124 18H30.0244C29.2504 18 27.8014 17.136 25.6774 15.408C24.3454 14.346 23.0764 13.176 21.8704 11.898C20.6824 10.602 19.7824 9.378 19.1704 8.226C18.9184 7.704 18.7204 7.218 18.5764 6.768C18.4504 6.3 18.3874 5.814 18.3874 5.31C18.3874 4.41 18.5854 3.6 18.9814 2.88C19.3954 2.16 19.9714 1.593 20.7094 1.179C21.4654 0.764999 22.3384 0.557999 23.3284 0.557999C24.3544 0.557999 25.1824 0.782999 25.8124 1.233C26.4604 1.683 26.7844 2.358 26.7844 3.258C26.7844 3.942 26.6044 4.563 26.2444 5.121C25.8844 5.679 25.4344 6.165 24.8944 6.579C24.3724 6.993 23.6704 7.497 22.7884 8.091C21.8884 8.685 21.1684 9.198 20.6284 9.63C20.1064 10.062 19.6564 10.566 19.2784 11.142C18.9184 11.718 18.7384 12.357 18.7384 13.059C18.7384 13.779 18.9364 14.463 19.3324 15.111C19.7284 15.741 20.2954 16.245 21.0334 16.623C21.7714 17.001 22.6174 17.19 23.5714 17.19C25.1014 17.19 26.2804 16.677 27.1084 15.651C27.9544 14.625 28.3774 13.257 28.3774 11.547C28.3774 10.629 28.2154 9.963 27.8914 9.549C27.5854 9.117 27.0454 8.901 26.2714 8.901C26.2354 8.901 26.2084 8.847 26.1904 8.739C26.1904 8.631 26.2174 8.577 26.2714 8.577L32.4274 8.55C32.4994 8.55 32.5354 8.604 32.5354 8.712C32.5354 8.82 32.4994 8.874 32.4274 8.874C31.8694 8.874 31.4464 8.937 31.1584 9.063C30.8884 9.171 30.6904 9.351 30.5644 9.603C30.4384 9.837 30.2944 10.224 30.1324 10.764C29.7724 12.06 29.3134 13.248 28.7554 14.328C28.2154 15.39 27.3694 16.326 26.2174 17.136C25.0834 17.928 23.6074 18.324 21.7894 18.324C20.5834 18.324 19.5754 18.144 18.7654 17.784C17.9554 17.406 17.3524 16.92 16.9564 16.326C16.5604 15.732 16.3624 15.093 16.3624 14.409C16.3624 13.743 16.5334 13.131 16.8754 12.573C17.2174 11.997 17.6404 11.484 18.1444 11.034C18.6664 10.584 19.3504 10.044 20.1964 9.414C21.1144 8.73 21.8434 8.145 22.3834 7.659C22.9414 7.155 23.4094 6.579 23.7874 5.931C24.1654 5.283 24.3544 4.563 24.3544 3.771ZM43.389 17.973C43.371 18.045 43.272 18.081 43.092 18.081C42.912 18.081 42.813 18.045 42.795 17.973L35.964 3.366C35.586 2.574 35.262 2.061 34.992 1.827C34.74 1.575 34.353 1.449 33.831 1.449C33.777 1.449 33.75 1.395 33.75 1.287C33.75 1.179 33.777 1.125 33.831 1.125L34.533 1.152C34.965 1.188 35.415 1.206 35.883 1.206C36.909 1.206 37.818 1.188 38.61 1.152C38.862 1.134 39.177 1.125 39.555 1.125C39.609 1.125 39.636 1.179 39.636 1.287C39.636 1.395 39.609 1.449 39.555 1.449C39.087 1.449 38.745 1.503 38.529 1.611C38.313 1.701 38.205 1.872 38.205 2.124C38.205 2.394 38.376 2.898 38.718 3.636L44.118 15.165L43.038 16.839L46.278 8.415L46.764 9.117L43.389 17.973ZM58.671 1.125C58.707 1.125 58.725 1.179 58.725 1.287C58.725 1.395 58.707 1.449 58.671 1.449C58.023 1.449 57.429 1.692 56.889 2.178C56.349 2.664 55.899 3.366 55.539 4.284L50.301 17.973C50.283 18.045 50.184 18.081 50.004 18.081C49.824 18.081 49.725 18.045 49.707 17.973L42.876 3.366C42.57 2.718 42.273 2.241 41.985 1.935C41.697 1.611 41.364 1.449 40.986 1.449C40.932 1.449 40.905 1.395 40.905 1.287C40.905 1.179 40.932 1.125 40.986 1.125L41.634 1.152C42.03 1.188 42.426 1.206 42.822 1.206C43.668 1.206 44.415 1.188 45.063 1.152C45.243 1.134 45.477 1.125 45.765 1.125C45.819 1.125 45.846 1.179 45.846 1.287C45.846 1.395 45.819 1.449 45.765 1.449C45.495 1.449 45.297 1.485 45.171 1.557C45.045 1.611 44.982 1.728 44.982 1.908C44.982 2.052 45.036 2.277 45.144 2.583C45.27 2.889 45.423 3.24 45.603 3.636L51.057 15.165L49.977 16.839L54.756 4.365C54.936 3.897 55.026 3.456 55.026 3.042C55.026 2.538 54.873 2.151 54.567 1.881C54.279 1.593 53.865 1.449 53.325 1.449C53.271 1.449 53.244 1.395 53.244 1.287C53.244 1.179 53.271 1.125 53.325 1.125L54.513 1.152C55.161 1.188 55.746 1.206 56.268 1.206C56.628 1.206 57.042 1.188 57.51 1.152L58.671 1.125ZM48.06 4.176C48.384 3.33 48.546 2.691 48.546 2.259C48.546 1.719 48.276 1.449 47.736 1.449C47.682 1.449 47.655 1.395 47.655 1.287C47.655 1.179 47.682 1.125 47.736 1.125C47.898 1.125 48.087 1.143 48.303 1.179C48.519 1.197 48.915 1.206 49.491 1.206C49.815 1.206 50.193 1.188 50.625 1.152L51.678 1.125C51.714 1.125 51.732 1.179 51.732 1.287C51.732 1.395 51.714 1.449 51.678 1.449C51.066 1.449 50.526 1.674 50.058 2.124C49.59 2.574 49.167 3.294 48.789 4.284L46.926 9.117L46.44 8.415L48.06 4.176Z" fill="#2D2D2D"/>
</svg>
